<svg xmlns="http://www.w3.org/2000/svg" xmlns:xlink="http://www.w3.org/1999/xlink" width="500" zoomAndPan="magnify" viewBox="0 0 375 374.999991" height="500" preserveAspectRatio="xMidYMid meet" version="1.0"><defs><clipPath id="ce5adba537"><path d="M 351.476562 30.9375 L 374.9375 30.9375 L 374.9375 53.167969 L 351.476562 53.167969 Z M 351.476562 30.9375 " clip-rule="nonzero"/></clipPath><clipPath id="475c861e11"><path d="M 29.003906 310.476562 L 62.804688 310.476562 L 62.804688 344.070312 L 29.003906 344.070312 Z M 29.003906 310.476562 " clip-rule="nonzero"/></clipPath></defs><path fill="#ffffff" d="M 196.652344 91.035156 L 224.640625 123.019531 L 226.773438 122.710938 L 196.066406 87.613281 L 196.652344 91.035156 " fill-opacity="1" fill-rule="nonzero"/><path fill="#ffffff" d="M 294.625 139.804688 L 297.105469 138.800781 L 310.628906 124.703125 L 310.996094 122.574219 L 311.171875 121.542969 L 293.019531 140.457031 L 294.625 139.804688 " fill-opacity="1" fill-rule="nonzero"/><path fill="#ffffff" d="M 355.984375 54.46875 L 326.636719 102.46875 L 326.953125 103.117188 L 328.226562 103.300781 L 359.105469 52.828125 L 356.71875 54.082031 L 355.984375 54.46875 " fill-opacity="1" fill-rule="nonzero"/><path fill="#ffffff" d="M 274.925781 147.039062 L 274.714844 146.523438 L 243.472656 134.316406 L 243.8125 136.308594 L 272.75 147.671875 L 274.925781 147.039062 " fill-opacity="1" fill-rule="nonzero"/><path fill="#ffffff" d="M 236.113281 264.445312 L 237.375 267.992188 L 243.554688 228.351562 L 241.613281 229.371094 L 236.113281 264.445312 " fill-opacity="1" fill-rule="nonzero"/><path fill="#ffffff" d="M 277.78125 160.421875 L 246.601562 216.054688 L 247.265625 217.398438 L 247.875 217.484375 L 279.640625 160.804688 L 279.34375 159.785156 L 277.78125 160.421875 " fill-opacity="1" fill-rule="nonzero"/><path fill="#ffffff" d="M 55.894531 323.367188 L 55.503906 324.082031 L 57.195312 324.796875 L 99.820312 307.726562 L 100.179688 305.65625 L 55.894531 323.367188 " fill-opacity="1" fill-rule="nonzero"/><path fill="#ffffff" d="M 215.039062 286.976562 L 118.636719 301.457031 L 116.441406 303.59375 L 218.652344 288.261719 L 215.039062 286.976562 " fill-opacity="1" fill-rule="nonzero"/><path fill="#ffffff" d="M 102.0625 228.738281 L 102.214844 227.859375 L 101.402344 227.070312 L 22.183594 261.308594 L 24 262.492188 L 102.0625 228.738281 " fill-opacity="1" fill-rule="nonzero"/><path fill="#ffffff" d="M 181.046875 201.804688 L 184.195312 200.527344 L 223.0625 146.546875 L 221.8125 147.203125 L 222.265625 144.558594 L 181.046875 201.804688 " fill-opacity="1" fill-rule="nonzero"/><path fill="#ffffff" d="M 162.3125 212.816406 L 122.558594 221.25 L 122.5625 221.25 L 120.808594 222.957031 L 120.15625 223.59375 L 165.21875 214.050781 L 162.3125 212.816406 " fill-opacity="1" fill-rule="nonzero"/><path fill="#ffffff" d="M 184.503906 223.746094 L 218.722656 267.339844 L 222.394531 269.085938 L 188.035156 225.308594 L 188.230469 225.792969 L 185.253906 224.15625 L 184.503906 223.746094 " fill-opacity="1" fill-rule="nonzero"/><path fill="#ffffff" d="M 103.511719 227.441406 L 103.386719 228.164062 L 102.214844 234.988281 L 108.996094 231.425781 L 115.777344 234.988281 L 114.480469 227.441406 L 114.480469 227.4375 L 117.949219 224.0625 L 119.96875 222.09375 L 119.144531 221.972656 L 112.386719 220.992188 L 108.996094 214.121094 L 105.605469 220.992188 L 98.023438 222.09375 L 102.597656 226.550781 L 103.511719 227.441406 " fill-opacity="1" fill-rule="nonzero"/><g clip-path="url(#ce5adba537)"><path fill="#ffffff" d="M 374.9375 39.371094 L 366.917969 38.207031 L 363.332031 30.9375 L 359.742188 38.207031 L 351.722656 39.371094 L 357.527344 45.027344 L 356.15625 53.015625 L 357.214844 52.460938 L 360.335938 50.820312 L 363.332031 49.242188 L 370.503906 53.015625 L 369.132812 45.027344 L 374.9375 39.371094 " fill-opacity="1" fill-rule="nonzero"/></g><path fill="#ffffff" d="M 114.398438 303.902344 L 116.59375 301.761719 L 119.171875 299.25 L 111.039062 298.066406 L 107.402344 290.699219 L 103.765625 298.066406 L 95.632812 299.25 L 101.515625 304.984375 L 101.492188 305.128906 L 101.136719 307.199219 L 100.128906 313.085938 L 107.402344 309.261719 L 114.675781 313.085938 L 113.285156 304.984375 L 114.398438 303.902344 " fill-opacity="1" fill-rule="nonzero"/><path fill="#ffffff" d="M 247.242188 218.613281 L 246.460938 218.5 L 245.886719 217.332031 L 243.738281 212.976562 L 241.011719 218.5 L 234.917969 219.386719 L 239.328125 223.683594 L 238.285156 229.753906 L 241.847656 227.882812 L 243.738281 226.890625 L 243.777344 226.910156 L 249.1875 229.753906 L 248.148438 223.683594 L 252.558594 219.386719 L 247.242188 218.613281 " fill-opacity="1" fill-rule="nonzero"/><path fill="#ffffff" d="M 179.96875 91.359375 L 187.503906 87.394531 L 195.039062 91.359375 L 194.578125 88.664062 L 193.992188 85.242188 L 193.601562 82.964844 L 199.699219 77.023438 L 191.273438 75.796875 L 187.503906 68.164062 L 183.734375 75.796875 L 175.308594 77.023438 L 181.40625 82.964844 L 179.96875 91.359375 " fill-opacity="1" fill-rule="nonzero"/><path fill="#ffffff" d="M 217.964844 125.648438 L 225.855469 133.339844 L 224.453125 141.519531 L 223.992188 144.199219 L 225.214844 143.558594 L 233.746094 139.074219 L 243.5 144.199219 L 242.027344 135.605469 L 241.683594 133.617188 L 241.636719 133.339844 L 249.527344 125.648438 L 238.621094 124.066406 L 233.746094 114.183594 L 228.871094 124.066406 L 228.0625 124.183594 L 225.929688 124.492188 L 217.964844 125.648438 " fill-opacity="1" fill-rule="nonzero"/><path fill="#ffffff" d="M 20.375 262.089844 L 19.609375 261.589844 L 19.355469 251.6875 L 11.652344 257.910156 L 2.15625 255.089844 L 5.691406 264.34375 L 0.0742188 272.5 L 9.96875 271.996094 L 15.992188 279.859375 L 18.570312 270.296875 L 27.910156 266.996094 L 22.191406 263.273438 L 20.375 262.089844 " fill-opacity="1" fill-rule="nonzero"/><path fill="#ffffff" d="M 335.738281 106.050781 L 327.296875 104.824219 L 325.867188 104.617188 L 325.621094 104.128906 L 321.445312 95.671875 L 317.03125 104.617188 L 307.160156 106.050781 L 314.304688 113.019531 L 313.203125 119.429688 L 312.660156 122.585938 L 312.617188 122.851562 L 321.445312 118.207031 L 330.28125 122.851562 L 328.59375 113.019531 L 335.738281 106.050781 " fill-opacity="1" fill-rule="nonzero"/><path fill="#ffffff" d="M 244.300781 279.925781 L 249.878906 268.195312 L 238.148438 273.773438 L 236.984375 270.496094 L 235.722656 266.949219 L 233.796875 261.535156 L 229.445312 273.773438 L 224.066406 271.214844 L 220.398438 269.472656 L 217.714844 268.195312 L 223.289062 279.925781 L 211.050781 284.277344 L 217.570312 286.597656 L 221.1875 287.882812 L 223.289062 288.628906 L 217.714844 300.359375 L 229.445312 294.785156 L 233.796875 307.023438 L 238.148438 294.785156 L 249.878906 300.359375 L 244.300781 288.628906 L 256.542969 284.277344 L 244.300781 279.925781 " fill-opacity="1" fill-rule="nonzero"/><path fill="#ffffff" d="M 164.375 212.382812 L 167.28125 213.613281 L 167.746094 213.808594 L 163.367188 221.773438 L 171.792969 218.363281 L 174.328125 227.089844 L 177.871094 218.722656 L 182.601562 221.324219 L 185.835938 223.097656 L 185.34375 221.882812 L 182.425781 214.675781 L 191.152344 212.140625 L 182.785156 208.59375 L 187.164062 200.628906 L 182.871094 202.367188 L 179.722656 203.644531 L 178.738281 204.042969 L 176.203125 195.3125 L 172.65625 203.683594 L 164.691406 199.304688 L 168.105469 207.726562 L 159.375 210.265625 L 164.375 212.382812 " fill-opacity="1" fill-rule="nonzero"/><g clip-path="url(#475c861e11)"><path fill="#ffffff" d="M 55.605469 325.433594 L 53.800781 324.671875 L 54.128906 324.074219 L 58.394531 316.316406 L 49.558594 319.894531 L 46.898438 310.742188 L 43.183594 319.519531 L 34.828125 314.925781 L 38.40625 323.761719 L 29.253906 326.421875 L 38.03125 330.136719 L 33.4375 338.492188 L 42.273438 334.914062 L 44.933594 344.070312 L 48.652344 335.292969 L 57.003906 339.886719 L 53.425781 331.046875 L 62.582031 328.386719 L 55.605469 325.433594 " fill-opacity="1" fill-rule="nonzero"/></g><path fill="#ffffff" d="M 290.820312 148.671875 L 295.078125 140.925781 L 295.066406 140.929688 L 290.972656 142.585938 L 286.886719 144.242188 L 284.421875 135.753906 L 280.972656 143.894531 L 273.226562 139.632812 L 276.261719 147.125 L 276.546875 147.828125 L 274.589844 148.394531 L 268.058594 150.292969 L 276.199219 153.738281 L 274.6875 156.488281 L 271.9375 161.484375 L 274.300781 160.527344 L 278.726562 158.734375 L 280.132812 158.167969 L 280.46875 159.328125 L 282.597656 166.652344 L 286.042969 158.515625 L 293.789062 162.773438 L 290.46875 154.582031 L 298.957031 152.117188 L 290.820312 148.671875 " fill-opacity="1" fill-rule="nonzero"/></svg>