<svg xmlns="http://www.w3.org/2000/svg" xmlns:xlink="http://www.w3.org/1999/xlink" width="500" zoomAndPan="magnify" viewBox="0 0 375 374.999991" height="500" preserveAspectRatio="xMidYMid meet" version="1.0"><defs><clipPath id="716e650429"><path d="M 275.601562 321.15625 L 315.28125 321.15625 L 315.28125 360.914062 L 275.601562 360.914062 Z M 275.601562 321.15625 " clip-rule="nonzero"/></clipPath><clipPath id="787ef08126"><path d="M 59.53125 266 L 82 266 L 82 288 L 59.53125 288 Z M 59.53125 266 " clip-rule="nonzero"/></clipPath><clipPath id="a85be79c3e"><path d="M 145.84375 357.214844 L 163.722656 357.214844 L 163.722656 375 L 145.84375 375 Z M 145.84375 357.214844 " clip-rule="nonzero"/></clipPath></defs><path fill="#ffffff" d="M 165.027344 209.207031 L 111.195312 187.660156 L 113.316406 190.152344 L 113.75 190.660156 L 165.285156 211.285156 L 165.558594 210.941406 L 165.027344 209.207031 " fill-opacity="1" fill-rule="nonzero"/><path fill="#ffffff" d="M 171.519531 117.125 L 170.554688 116.613281 L 104.417969 171.046875 L 104.046875 173.058594 L 104.78125 173.121094 L 171.628906 118.085938 L 171.519531 117.125 " fill-opacity="1" fill-rule="nonzero"/><path fill="#ffffff" d="M 234.523438 192.742188 L 177.546875 209.878906 L 179.359375 211.246094 L 236.015625 194.210938 L 234.523438 192.742188 " fill-opacity="1" fill-rule="nonzero"/><path fill="#ffffff" d="M 258.925781 20.589844 L 258.828125 20.367188 L 256.996094 20.015625 L 182.582031 105.0625 L 185.339844 104.675781 L 258.925781 20.589844 " fill-opacity="1" fill-rule="nonzero"/><path fill="#ffffff" d="M 165.449219 322 L 159.554688 355.5625 L 160.304688 355.035156 L 160.199219 357.507812 L 159.957031 363.097656 L 160.078125 363.1875 L 167.101562 323.175781 L 166.332031 322.015625 L 165.449219 322 " fill-opacity="1" fill-rule="nonzero"/><path fill="#ffffff" d="M 178.488281 312.566406 L 216.75 299.984375 L 217.339844 298.425781 L 217.023438 297.96875 L 177.339844 311.015625 L 177.3125 311.679688 L 178.488281 312.566406 " fill-opacity="1" fill-rule="nonzero"/><path fill="#ffffff" d="M 95.613281 196.847656 L 93.476562 193.746094 L 95.972656 219.804688 L 97.695312 218.597656 L 95.613281 196.847656 " fill-opacity="1" fill-rule="nonzero"/><path fill="#ffffff" d="M 285.050781 335.910156 L 284.355469 334.21875 L 250.128906 317.847656 L 248.234375 318.375 L 248.074219 318.847656 L 284.199219 336.164062 L 285.050781 335.910156 " fill-opacity="1" fill-rule="nonzero"/><path fill="#ffffff" d="M 157.679688 372.871094 L 158.265625 373.503906 L 158.875 370.042969 L 158.628906 370.113281 L 157.679688 372.871094 " fill-opacity="1" fill-rule="nonzero"/><path fill="#ffffff" d="M 146.863281 359.210938 L 146.554688 358.195312 L 75.144531 281.285156 L 74.816406 281.375 L 74.25 283.015625 L 147.78125 362.210938 L 146.863281 359.210938 " fill-opacity="1" fill-rule="nonzero"/><path fill="#ffffff" d="M 77.332031 243.429688 L 77.230469 245.773438 L 93.382812 234.03125 L 93.191406 233.742188 L 90.722656 233.699219 L 77.332031 243.429688 " fill-opacity="1" fill-rule="nonzero"/><path fill="#ffffff" d="M 94.371094 233.3125 L 98.269531 239.195312 L 100.875 231.636719 L 108.574219 229.496094 L 102.191406 224.6875 L 102.535156 216.699219 L 97.832031 219.992188 L 96.105469 221.203125 L 95.988281 221.285156 L 88.5 218.488281 L 90.835938 226.132812 L 85.863281 232.390625 L 92.363281 232.503906 L 93.855469 232.53125 L 94.371094 233.3125 " fill-opacity="1" fill-rule="nonzero"/><path fill="#ffffff" d="M 236.480469 307.511719 L 229.78125 301.019531 L 229.726562 303.515625 L 237.589844 311.128906 L 236.480469 307.511719 " fill-opacity="1" fill-rule="nonzero"/><path fill="#ffffff" d="M 68.332031 268.859375 L 69.035156 269.121094 L 70.191406 268.308594 L 70.601562 258.828125 L 68.875 256.226562 L 68.332031 268.859375 " fill-opacity="1" fill-rule="nonzero"/><path fill="#ffffff" d="M 86.054688 186.863281 L 83.898438 198.578125 L 92.964844 190.855469 L 93.234375 191.246094 L 95.371094 194.347656 L 99.722656 200.660156 L 100.675781 188.789062 L 112.386719 190.945312 L 111.3125 189.683594 L 108.761719 186.6875 L 104.667969 181.878906 L 114.472656 175.121094 L 103.425781 174.238281 L 102.601562 174.171875 L 102.953125 172.253906 L 104.757812 162.457031 L 95.691406 170.179688 L 88.933594 160.375 L 87.980469 172.242188 L 76.269531 170.089844 L 83.988281 179.15625 L 74.183594 185.914062 L 86.054688 186.863281 " fill-opacity="1" fill-rule="nonzero"/><g clip-path="url(#716e650429)"><path fill="#ffffff" d="M 315.441406 342.074219 L 304.992188 337.699219 L 310.40625 327.75 L 299.925781 332.046875 L 296.71875 321.183594 L 292.347656 331.632812 L 282.398438 326.21875 L 286 335.003906 L 286.695312 336.699219 L 285.84375 336.953125 L 275.828125 339.902344 L 286.277344 344.277344 L 280.863281 354.226562 L 291.34375 349.929688 L 294.550781 360.792969 L 298.921875 350.347656 L 308.875 355.761719 L 304.578125 345.277344 L 315.441406 342.074219 " fill-opacity="1" fill-rule="nonzero"/></g><path fill="#ffffff" d="M 257.925781 18.953125 L 259.6875 19.289062 L 259.816406 19.578125 L 263.886719 28.859375 L 268.929688 19.703125 L 279.328125 18.664062 L 272.179688 11.042969 L 274.40625 0.832031 L 264.949219 5.273438 L 255.925781 0 L 257.226562 10.371094 L 249.421875 17.320312 L 257.925781 18.953125 " fill-opacity="1" fill-rule="nonzero"/><path fill="#ffffff" d="M 172.660156 116.347656 L 172.753906 117.160156 L 173.632812 124.875 L 179.808594 118.917969 L 188.21875 120.625 L 184.460938 112.910156 L 188.683594 105.441406 L 184.109375 106.082031 L 181.351562 106.46875 L 180.183594 106.632812 L 174.386719 100.304688 L 172.890625 108.753906 L 165.082031 112.316406 L 171.574219 115.773438 L 172.660156 116.347656 " fill-opacity="1" fill-rule="nonzero"/><path fill="#ffffff" d="M 176.097656 210.316406 L 175.769531 210.070312 L 176.039062 203.839844 L 170.933594 207.417969 L 165.089844 205.238281 L 166.484375 209.789062 L 166.914062 211.199219 L 166.46875 211.757812 L 163.035156 216.078125 L 169.269531 216.1875 L 172.710938 221.382812 L 174.742188 215.488281 L 180.746094 213.820312 L 177.910156 211.683594 L 176.097656 210.316406 " fill-opacity="1" fill-rule="nonzero"/><path fill="#ffffff" d="M 244.644531 188.648438 L 241.917969 183.042969 L 239.128906 188.617188 L 232.953125 189.480469 L 235.859375 192.34375 L 237.347656 193.808594 L 237.394531 193.855469 L 236.308594 199.992188 L 241.839844 197.121094 L 247.339844 200.054688 L 246.320312 193.902344 L 250.808594 189.578125 L 244.644531 188.648438 " fill-opacity="1" fill-rule="nonzero"/><path fill="#ffffff" d="M 68.9375 254.769531 L 69.382812 254.78125 L 70.6875 256.75 L 72.824219 259.972656 L 74.855469 254.082031 L 80.859375 252.414062 L 75.882812 248.660156 L 75.96875 246.6875 L 76.066406 244.347656 L 76.152344 242.433594 L 71.046875 246.007812 L 65.203125 243.828125 L 67.027344 249.789062 L 63.148438 254.671875 L 68.9375 254.769531 " fill-opacity="1" fill-rule="nonzero"/><path fill="#ffffff" d="M 253.292969 315.699219 L 248.316406 311.949219 L 248.585938 305.722656 L 243.476562 309.296875 L 237.640625 307.117188 L 238.296875 309.269531 L 238.90625 311.253906 L 239.402344 312.890625 L 239.460938 313.078125 L 235.585938 317.960938 L 241.816406 318.066406 L 245.261719 323.265625 L 246.960938 318.316406 L 247.289062 317.371094 L 248.453125 317.046875 L 253.292969 315.699219 " fill-opacity="1" fill-rule="nonzero"/><g clip-path="url(#787ef08126)"><path fill="#ffffff" d="M 75.125 273.734375 L 75.457031 266.117188 L 70.128906 269.847656 L 69.207031 270.488281 L 68.277344 270.144531 L 62.0625 267.824219 L 64.292969 275.117188 L 62.191406 277.761719 L 59.546875 281.089844 L 67.171875 281.222656 L 69.707031 285.046875 L 71.386719 287.582031 L 73.308594 282.003906 L 73.871094 280.371094 L 74.207031 280.277344 L 81.21875 278.328125 L 75.125 273.734375 " fill-opacity="1" fill-rule="nonzero"/></g><g clip-path="url(#a85be79c3e)"><path fill="#ffffff" d="M 158.710938 363.683594 L 158.898438 359.285156 L 158.976562 357.457031 L 153.871094 361.03125 L 148.03125 358.851562 L 148.460938 360.246094 L 149.6875 364.257812 L 149.855469 364.8125 L 145.976562 369.695312 L 152.210938 369.804688 L 155.652344 375 L 156.734375 371.851562 L 157.683594 369.109375 L 159.109375 368.710938 L 163.6875 367.4375 L 159.839844 364.535156 L 158.710938 363.683594 " fill-opacity="1" fill-rule="nonzero"/></g><path fill="#ffffff" d="M 176.0625 312.265625 L 176.097656 311.421875 L 176.4375 303.578125 L 169.3125 308.566406 L 161.167969 305.527344 L 163.707031 313.839844 L 158.296875 320.652344 L 165.664062 320.78125 L 166.992188 320.804688 L 167.410156 321.429688 L 171.796875 328.054688 L 174.628906 319.828125 L 183.007812 317.5 L 177.074219 313.03125 L 176.0625 312.265625 " fill-opacity="1" fill-rule="nonzero"/><path fill="#ffffff" d="M 227.816406 294.007812 L 225.96875 287.238281 L 221.71875 292.824219 L 214.710938 292.492188 L 218.234375 297.570312 L 218.710938 298.257812 L 218.242188 299.496094 L 216.230469 304.820312 L 222.949219 302.796875 L 228.425781 307.1875 L 228.527344 302.355469 L 228.578125 300.171875 L 228.773438 300.042969 L 234.441406 296.316406 L 227.816406 294.007812 " fill-opacity="1" fill-rule="nonzero"/></svg>