<svg id="Layer_1" data-name="Layer 1" xmlns="http://www.w3.org/2000/svg" viewBox="0 0 617.31 588.5"><defs><style>.cls-1{fill:#f1dfed;}.cls-2{fill:none;stroke:#414142;stroke-linecap:round;stroke-linejoin:round;stroke-width:3px;}</style></defs><circle class="cls-1" cx="308.66" cy="293.23" r="287.23"/><path class="cls-2" d="M227.25,419.54l-48.44-29.08c16-30.77,6.16-30.58,26.19-88.33s81.49-80.84,81.49-80.84L300.1,185.4l.14-1.75-5.38-3.24a34.49,34.49,0,0,1,8.1-13.49l29.15,17.5,4.55,2.73,29.15,17.5a34.49,34.49,0,0,1-8.1,13.5l-5.38-3.23-1.49.94-25.28,28.9s8.51,65.09-33,109.91-46,36-65.66,64.64"/><line class="cls-2" x1="309.79" y1="189.58" x2="336.55" y2="205.65"/><path class="cls-2" d="M260,235.59s-22.38-14.19-38.53,4.8-1.13,44.55-22.11,62.11"/><ellipse class="cls-2" cx="195.43" cy="296.63" rx="7.21" ry="7.04" transform="translate(-159.48 311.48) rotate(-59.02)"/><path class="cls-2" d="M325.66,275s23.06,13.09,13.88,36.27S300.75,333.21,295.11,360"/><ellipse class="cls-2" cx="302.16" cy="360.71" rx="7.21" ry="7.04" transform="translate(-162.63 434.08) rotate(-59.02)"/><line class="cls-2" x1="226.97" y1="270.33" x2="310.91" y2="320.73"/><line class="cls-2" x1="223.8" y1="268.43" x2="312.97" y2="321.97"/><line class="cls-2" x1="210.61" y1="288.82" x2="303.12" y2="344.36"/><path class="cls-2" d="M346.28,192.77s43.8-8.58,76.72,35.61S425.27,326,431,362.79"/><path class="cls-2" d="M364.08,204s51.51,45.56,12.92,139.4c0,0-7.66,14.56.71,34.87"/></svg>