<svg xmlns="http://www.w3.org/2000/svg" xmlns:xlink="http://www.w3.org/1999/xlink" width="500" zoomAndPan="magnify" viewBox="0 0 375 374.999991" height="500" preserveAspectRatio="xMidYMid meet" version="1.0"><defs><clipPath id="4086581626"><path d="M 0 99.140625 L 26 99.140625 L 26 125 L 0 125 Z M 0 99.140625 " clip-rule="nonzero"/></clipPath><clipPath id="fe3f8caab9"><path d="M 342.140625 242.425781 L 374.785156 242.425781 L 374.785156 275.863281 L 342.140625 275.863281 Z M 342.140625 242.425781 " clip-rule="nonzero"/></clipPath></defs><path fill="#ffffff" d="M 353.527344 249.941406 L 354.625 248.683594 L 331.964844 203.359375 L 329.476562 202.582031 L 353.132812 249.898438 L 353.527344 249.941406 " fill-opacity="1" fill-rule="nonzero"/><path fill="#ffffff" d="M 22.40625 112.835938 L 21.378906 114.097656 L 21.542969 114.65625 L 204.476562 129.195312 L 205.242188 128.921875 L 208.808594 127.652344 L 22.40625 112.835938 " fill-opacity="1" fill-rule="nonzero"/><path fill="#ffffff" d="M 246.40625 142.8125 L 317.132812 188.625 L 319.40625 187.855469 L 244.867188 139.578125 L 246.40625 142.8125 " fill-opacity="1" fill-rule="nonzero"/><g clip-path="url(#4086581626)"><path fill="#ffffff" d="M 19.992188 113.820312 L 20.890625 112.714844 L 25.621094 106.890625 L 16.695312 106.636719 L 11.84375 99.140625 L 8.84375 107.550781 L 0.214844 109.851562 L 7.289062 115.300781 L 6.808594 124.214844 L 14.175781 119.175781 L 22.507812 122.386719 L 20.203125 114.546875 L 19.992188 113.820312 " fill-opacity="1" fill-rule="nonzero"/></g><path fill="#ffffff" d="M 335.546875 203.164062 L 332.375 194.515625 L 337.695312 186.996094 L 328.492188 187.34375 L 322.988281 179.957031 L 320.535156 188.589844 L 320.472656 188.820312 L 318.476562 189.492188 L 311.746094 191.769531 L 319.398438 196.902344 L 319.507812 206.113281 L 326.753906 200.421875 L 328.699219 201.027344 L 331.1875 201.804688 L 335.546875 203.164062 " fill-opacity="1" fill-rule="nonzero"/><g clip-path="url(#fe3f8caab9)"><path fill="#ffffff" d="M 364.035156 253.902344 L 361.710938 242.453125 L 355.234375 249.894531 L 354.039062 251.265625 L 353.800781 251.234375 L 342.433594 249.9375 L 348.441406 259.957031 L 343.59375 270.585938 L 354.976562 267.96875 L 363.585938 275.863281 L 364.617188 264.226562 L 374.785156 258.476562 L 364.035156 253.902344 " fill-opacity="1" fill-rule="nonzero"/></g><path fill="#ffffff" d="M 242.863281 138.28125 L 241.1875 134.753906 L 254.261719 130.105469 L 241.1875 125.453125 L 247.144531 112.921875 L 234.609375 118.878906 L 229.960938 105.804688 L 225.3125 118.878906 L 212.777344 112.921875 L 218.738281 125.453125 L 211.867188 127.894531 L 207.53125 129.4375 L 205.660156 130.105469 L 218.738281 134.753906 L 212.777344 147.285156 L 225.3125 141.328125 L 229.960938 154.402344 L 234.609375 141.328125 L 247.144531 147.285156 L 244.402344 141.515625 L 242.863281 138.28125 " fill-opacity="1" fill-rule="nonzero"/></svg>