<svg id="Layer_1" data-name="Layer 1" xmlns="http://www.w3.org/2000/svg" viewBox="0 0 617.31 588.5"><defs><style>.cls-1{fill:#f5dec6;}.cls-2{fill:none;stroke:#414142;stroke-linecap:round;stroke-linejoin:round;stroke-width:3px;}</style></defs><circle class="cls-1" cx="308.33" cy="295.01" r="280.76"/><path class="cls-2" d="M261.25,250.55c-10.62,5-17,16.29-25.49,29s-17,46.74-21.87,53.83a125.33,125.33,0,0,0-8.59,14.87c-7.08,31.87,18.42,30.45,18.42,30.45s16.28-4.25,29.74-13.46,30.45-25.49,49.57-17.7,19.83,31.17,19.83,31.17"/><path class="cls-2" d="M213.79,355.83s5.65,0,6.63,4.48"/><path class="cls-2" d="M250.65,297.91a18.74,18.74,0,0,1,3.09-6.31c2.94-4,8.45-8.14,18.36-7"/><path class="cls-2" d="M255.21,292.71s5.23,2.81,8.94.79,3-6.72,2.45-8.47"/><path class="cls-2" d="M268.43,256.67s5.36-33.67,39.71-55.39c34.7-21.94,99.84-8.58,104.1,43.38,3.95,48.21-24.36,85.08-66.07,67.39-1.75-1.72-14.46-9.78-12-24.69,0,0,11.55,30.39,40,15.35s23.92-51.91,7.34-68.64c0,0-16.35-12.77-35.7-6.43s-23.69,31.36-19,39c0,0-14.68,12-34,7.67S270.43,260.34,268.43,256.67Z"/><path class="cls-2" d="M329.13,268.29s34.09,31.45,39.37,33.88"/><path class="cls-2" d="M385.13,314.64s13.4,11.07,23.74,12.9"/><path class="cls-2" d="M280.76,227.93s11.95,21.6,46.39,19.21"/><path class="cls-2" d="M308.14,201.28s4.42,25.38,28.94,31.18"/><path class="cls-2" d="M347.39,191.15s-8.53,15.58,6.09,34.9"/><path class="cls-2" d="M384.89,201.28s-18.22,3.6-16.39,26.37"/><path class="cls-2" d="M404.27,220.9c1.23-.64-19.12-4.2-20.76,15.33"/><path class="cls-2" d="M391.1,249.06s12.09-10.52,21.32-1.73"/><path class="cls-2" d="M394.63,264.48s11.24-1,15.28,11.78"/><path class="cls-2" d="M392.62,281.33s9.34,2.28,9.65,13.69"/><path class="cls-2" d="M385.13,294.29s6.9,3.26,6,13.7"/><path class="cls-2" d="M374.2,302.71s3.14,5.27,1.05,12.92"/><path class="cls-2" d="M359.77,306.88s1,5.31-3.25,8.52"/><path class="cls-2" d="M337.6,302.71a19.37,19.37,0,0,0,6.43-1.57"/><path class="cls-2" d="M259.87,247.33s3.3-51.4,57.64-64.31c0,0,46.63-9.28,71.65,21"/><path class="cls-2" d="M361.48,297s26-.78,32.43-24.8"/></svg>