<svg id="Layer_1" data-name="Layer 1" xmlns="http://www.w3.org/2000/svg" viewBox="0 0 617.31 588.5"><defs><style>.cls-1{fill:#e5f3ec;}.cls-2{fill:none;stroke:#414142;stroke-linecap:round;stroke-linejoin:round;stroke-width:3px;}</style></defs><circle class="cls-1" cx="312.87" cy="294.8" r="286.7"/><ellipse class="cls-2" cx="313.41" cy="330.4" rx="57.36" ry="87.45" transform="translate(-23.16 637.18) rotate(-88.86)"/><path class="cls-2" d="M276.06,278.44a9.06,9.06,0,0,1-2.65-6.27c0-5.78,5.85-10.48,13.11-10.51s13.18,4.63,13.2,10.41a8.65,8.65,0,0,1-.26,2.11"/><path class="cls-2" d="M355.5,280a9.07,9.07,0,0,0,2.9-6.16c.25-5.77-5.43-10.71-12.69-11s-13.35,4.11-13.6,9.89a8.33,8.33,0,0,0,.18,2.12"/><line class="cls-2" x1="314.08" y1="296.27" x2="312.87" y2="357.6"/><polyline class="cls-2" points="231.97 309.19 206.66 294.8 185.54 313.83"/><polyline class="cls-2" points="226.36 327.75 199.02 317.73 181.33 339.98"/><polyline class="cls-2" points="228.57 343.48 199.46 343.78 190.78 370.85"/><polyline class="cls-2" points="396.32 312.46 422.18 299.08 442.53 318.93"/><polyline class="cls-2" points="401.19 331.23 428.9 322.3 445.7 345.23"/><polyline class="cls-2" points="398.35 346.86 427.43 348.31 435.03 375.7"/><path class="cls-2" d="M242.19,296.72s-24.93-5.73-23.7-30.2l1.23-24.47c1.73.17,21.6,6.42,30.56-13.63a60.49,60.49,0,0,0,5.21-30l-25.87,12.24-21.31-21.51s-13.78,45.56,11.41,52.91"/><path class="cls-2" d="M387.41,299.6s25.14-4.73,24.88-29.23l-.26-24.5c-1.74.1-21.84,5.56-30-14.83a60.54,60.54,0,0,1-4-30.2l25.36,13.26,22.14-20.64s12,46.07-13.5,52.41"/></svg>