<svg xmlns="http://www.w3.org/2000/svg" xmlns:xlink="http://www.w3.org/1999/xlink" width="500" zoomAndPan="magnify" viewBox="0 0 375 374.999991" height="500" preserveAspectRatio="xMidYMid meet" version="1.0"><defs><clipPath id="12fac1ebb0"><path d="M 317 271.628906 L 344.964844 271.628906 L 344.964844 299.765625 L 317 299.765625 Z M 317 271.628906 " clip-rule="nonzero"/></clipPath><clipPath id="a707071db5"><path d="M 134.582031 333.109375 L 176.609375 333.109375 L 176.609375 375 L 134.582031 375 Z M 134.582031 333.109375 " clip-rule="nonzero"/></clipPath></defs><path fill="#ffffff" d="M 159.855469 237.589844 L 159.148438 235.59375 L 157.96875 232.277344 L 154.3125 340.445312 L 154.90625 341.042969 L 156.421875 339.191406 L 159.855469 237.589844 " fill-opacity="1" fill-rule="nonzero"/><path fill="#ffffff" d="M 154.695312 195.304688 L 154.828125 194.925781 L 134.792969 145.3125 L 131.996094 143.84375 L 152.300781 194.167969 L 154.695312 195.304688 " fill-opacity="1" fill-rule="nonzero"/><path fill="#ffffff" d="M 123.566406 125.972656 L 124.285156 124.511719 L 55.589844 26.816406 L 53.410156 26.746094 L 53.210938 27.015625 L 122.890625 126.070312 L 123.566406 125.972656 " fill-opacity="1" fill-rule="nonzero"/><path fill="#ffffff" d="M 175.847656 218.140625 L 321.300781 282.527344 L 323.207031 281.113281 L 174.488281 215.28125 L 175.847656 218.140625 " fill-opacity="1" fill-rule="nonzero"/><g clip-path="url(#12fac1ebb0)"><path fill="#ffffff" d="M 338.90625 283.429688 L 341.859375 274.050781 L 332.617188 277.414062 L 324.609375 271.707031 L 324.949219 281.539062 L 324.65625 281.753906 L 322.75 283.167969 L 317.050781 287.390625 L 326.5 290.101562 L 329.628906 299.425781 L 335.128906 291.273438 L 344.964844 291.183594 L 338.90625 283.429688 " fill-opacity="1" fill-rule="nonzero"/></g><path fill="#ffffff" d="M 137.539062 145.203125 L 135.875 135.507812 L 142.917969 128.644531 L 133.1875 127.230469 L 128.832031 118.410156 L 125.191406 125.796875 L 124.480469 127.230469 L 123.777344 127.332031 L 114.75 128.644531 L 121.792969 135.507812 L 120.128906 145.203125 L 128.832031 140.625 L 131.199219 141.867188 L 133.992188 143.335938 L 137.539062 145.203125 " fill-opacity="1" fill-rule="nonzero"/><path fill="#ffffff" d="M 65.195312 25.75 L 57.933594 15.609375 L 62.167969 3.878906 L 50.28125 7.652344 L 40.433594 0 L 40.351562 12.472656 L 30.027344 19.472656 L 41.863281 23.40625 L 45.332031 35.386719 L 52.375 25.828125 L 52.730469 25.347656 L 54.597656 25.40625 L 65.195312 25.75 " fill-opacity="1" fill-rule="nonzero"/><path fill="#ffffff" d="M 172.558594 214.425781 L 172.429688 214.152344 L 186.390625 209.1875 L 172.429688 204.226562 L 178.789062 190.84375 L 165.410156 197.203125 L 160.445312 183.246094 L 155.605469 196.851562 L 155.480469 197.203125 L 153.0625 196.054688 L 142.097656 190.84375 L 148.460938 204.226562 L 134.5 209.1875 L 148.460938 214.152344 L 142.097656 227.535156 L 155.480469 221.175781 L 158.09375 228.523438 L 159.984375 233.835938 L 160.445312 235.132812 L 165.410156 221.175781 L 178.789062 227.535156 L 173.917969 217.285156 L 172.558594 214.425781 " fill-opacity="1" fill-rule="nonzero"/><g clip-path="url(#a707071db5)"><path fill="#ffffff" d="M 166.605469 353.617188 L 175.570312 344.695312 L 162.984375 345.953125 L 163.015625 333.304688 L 156.347656 341.457031 L 155.007812 343.09375 L 154.25 342.332031 L 146.089844 334.132812 L 147.34375 346.714844 L 134.699219 346.683594 L 144.488281 354.691406 L 135.523438 363.609375 L 148.105469 362.351562 L 148.074219 375 L 156.082031 365.210938 L 165.003906 374.175781 L 163.746094 361.59375 L 176.390625 361.625 L 166.605469 353.617188 " fill-opacity="1" fill-rule="nonzero"/></g></svg>