<svg xmlns="http://www.w3.org/2000/svg" xmlns:xlink="http://www.w3.org/1999/xlink" width="500" zoomAndPan="magnify" viewBox="0 0 375 374.999991" height="500" preserveAspectRatio="xMidYMid meet" version="1.0"><defs><clipPath id="ffdf5a8e0c"><path d="M 334 4.453125 L 374.941406 4.453125 L 374.941406 45.394531 L 334 45.394531 Z M 334 4.453125 " clip-rule="nonzero"/></clipPath><clipPath id="98d944642d"><path d="M 289 319.386719 L 340.191406 319.386719 L 340.191406 370.453125 L 289 370.453125 Z M 289 319.386719 " clip-rule="nonzero"/></clipPath></defs><path fill="#ffffff" d="M 319.328125 326.019531 L 320.652344 330.484375 L 323.402344 314.878906 L 322.738281 313.097656 L 321.96875 311.027344 L 319.328125 326.019531 " fill-opacity="1" fill-rule="nonzero"/><path fill="#ffffff" d="M 235.992188 346.589844 L 168.007812 350.839844 L 164.917969 353.121094 L 233.78125 348.8125 L 235.992188 346.589844 " fill-opacity="1" fill-rule="nonzero"/><path fill="#ffffff" d="M 98.59375 272.308594 L 95.882812 271.464844 L 61.195312 291.214844 L 62.773438 292.707031 L 98.59375 272.308594 " fill-opacity="1" fill-rule="nonzero"/><path fill="#ffffff" d="M 337.394531 84.417969 L 338.113281 81.71875 L 337.6875 81.226562 L 185.394531 229.632812 L 184.925781 232.648438 L 185.105469 232.820312 L 337.394531 84.417969 " fill-opacity="1" fill-rule="nonzero"/><path fill="#ffffff" d="M 345.160156 90.070312 L 324.132812 292.222656 L 326.011719 293.46875 L 326.097656 293.433594 L 347.292969 89.648438 L 346.855469 89.363281 L 345.160156 90.070312 " fill-opacity="1" fill-rule="nonzero"/><path fill="#ffffff" d="M 350.472656 62.300781 L 353.4375 40.445312 L 351.761719 37.316406 L 348.46875 61.574219 L 349.523438 59.847656 L 350.472656 62.300781 " fill-opacity="1" fill-rule="nonzero"/><path fill="#ffffff" d="M 48.992188 300.554688 L 49.78125 300.105469 L 49.34375 299.25 L 47.5 299.011719 L 47.378906 299.078125 L 37.628906 320.476562 L 40.929688 318.25 L 48.992188 300.554688 " fill-opacity="1" fill-rule="nonzero"/><path fill="#ffffff" d="M 121.96875 258.734375 L 121.089844 261.328125 L 171.617188 240.898438 L 167.421875 240.351562 L 121.96875 258.734375 " fill-opacity="1" fill-rule="nonzero"/><path fill="#ffffff" d="M 97.550781 341.023438 L 149.679688 352.066406 L 149.683594 352.058594 L 147.707031 349.519531 L 94.65625 338.28125 L 97.550781 341.023438 " fill-opacity="1" fill-rule="nonzero"/><path fill="#ffffff" d="M 49.550781 341.261719 L 77.90625 339.324219 L 79.578125 337.644531 L 79.480469 337.128906 L 54.019531 338.871094 L 49.550781 341.261719 " fill-opacity="1" fill-rule="nonzero"/><path fill="#ffffff" d="M 297.847656 348.832031 L 292.710938 346.691406 L 250.257812 346.191406 L 250.238281 346.328125 L 252.3125 348.292969 L 297.847656 348.832031 " fill-opacity="1" fill-rule="nonzero"/><path fill="#ffffff" d="M 49.496094 297.871094 L 50.246094 297.972656 L 50.988281 299.417969 L 53.8125 304.9375 L 57.171875 297.871094 L 64.902344 296.632812 L 61.511719 293.425781 L 59.933594 291.929688 L 59.21875 291.25 L 60.429688 283.519531 L 53.554688 287.261719 L 46.574219 283.71875 L 48.007812 291.414062 L 42.484375 296.957031 L 49.496094 297.871094 " fill-opacity="1" fill-rule="nonzero"/><g clip-path="url(#ffdf5a8e0c)"><path fill="#ffffff" d="M 374.941406 21.796875 L 363.367188 19.542969 L 366.789062 8.261719 L 357.011719 14.851562 L 351.453125 4.453125 L 349.199219 16.023438 L 337.914062 12.605469 L 344.507812 22.382812 L 334.109375 27.941406 L 345.683594 30.195312 L 342.261719 41.480469 L 352.039062 34.886719 L 352.082031 34.96875 L 353.757812 38.097656 L 357.597656 45.285156 L 359.855469 33.710938 L 371.132812 37.132812 L 364.546875 27.355469 L 374.941406 21.796875 " fill-opacity="1" fill-rule="nonzero"/></g><g clip-path="url(#98d944642d)"><path fill="#ffffff" d="M 326.636719 340.765625 L 333.605469 327.925781 L 320.125 333.472656 L 320.097656 333.484375 L 318.789062 329.078125 L 315.941406 319.484375 L 310.324219 332.964844 L 297.484375 326 L 303.042969 339.503906 L 289.042969 343.660156 L 296.421875 346.738281 L 301.558594 348.878906 L 302.523438 349.277344 L 295.558594 362.117188 L 309.0625 356.558594 L 313.214844 370.558594 L 318.835938 357.082031 L 331.675781 364.046875 L 326.117188 350.539062 L 340.121094 346.386719 L 326.636719 340.765625 " fill-opacity="1" fill-rule="nonzero"/></g><path fill="#ffffff" d="M 46.175781 341.492188 L 50.648438 339.101562 L 57.226562 335.582031 L 41.023438 332.429688 L 45.808594 316.632812 L 39.828125 320.664062 L 36.527344 322.890625 L 32.125 325.859375 L 24.339844 311.304688 L 21.1875 327.507812 L 5.390625 322.71875 L 14.617188 336.40625 L 0.0625 344.191406 L 16.261719 347.34375 L 11.476562 363.140625 L 25.164062 353.914062 L 32.949219 368.46875 L 36.101562 352.265625 L 51.898438 357.054688 L 42.671875 343.367188 L 46.175781 341.492188 " fill-opacity="1" fill-rule="nonzero"/><path fill="#ffffff" d="M 353.214844 73.269531 L 350.082031 65.152344 L 349.242188 62.96875 L 348.007812 64.992188 L 343.484375 72.386719 L 332.460938 72.984375 L 338.683594 80.253906 L 339.640625 81.371094 L 339.332031 82.527344 L 336.800781 92.039062 L 345.320312 88.5 L 346.996094 87.804688 L 347.453125 88.101562 L 356.261719 93.800781 L 355.386719 82.796875 L 363.949219 75.835938 L 353.214844 73.269531 " fill-opacity="1" fill-rule="nonzero"/><path fill="#ffffff" d="M 170.035156 239.292969 L 174.230469 239.84375 L 174.46875 239.875 L 178.035156 246.839844 L 181.394531 239.773438 L 189.125 238.535156 L 184.113281 233.789062 L 183.441406 233.152344 L 183.738281 231.246094 L 184.652344 225.421875 L 177.777344 229.164062 L 170.796875 225.625 L 172.234375 233.316406 L 166.707031 238.859375 L 170.035156 239.292969 " fill-opacity="1" fill-rule="nonzero"/><path fill="#ffffff" d="M 162.328125 353.308594 L 162.367188 353.28125 L 165.457031 351 L 168.625 348.660156 L 161.105469 346.488281 L 158.628906 339.066406 L 154.242188 345.546875 L 146.417969 345.605469 L 149.8125 349.964844 L 151.222656 351.78125 L 151.042969 352.355469 L 148.863281 359.242188 L 156.222656 356.578125 L 162.589844 361.128906 L 162.328125 353.308594 " fill-opacity="1" fill-rule="nonzero"/><path fill="#ffffff" d="M 92.28125 337.945312 L 92.308594 337.785156 L 93.492188 330.210938 L 86.621094 333.953125 L 79.640625 330.414062 L 80.875 337.03125 L 81.074219 338.105469 L 80.007812 339.179688 L 75.550781 343.652344 L 83.3125 344.664062 L 86.875 351.632812 L 90.238281 344.5625 L 97.964844 343.324219 L 94.953125 340.472656 L 92.28125 337.945312 " fill-opacity="1" fill-rule="nonzero"/><path fill="#ffffff" d="M 248.753906 346.835938 L 248.855469 346.175781 L 249.964844 339.105469 L 243.089844 342.84375 L 236.109375 339.304688 L 237.453125 346.5 L 237.546875 347 L 235.867188 348.679688 L 232.023438 352.542969 L 239.78125 353.554688 L 243.347656 360.523438 L 246.710938 353.453125 L 254.4375 352.214844 L 250.269531 348.269531 L 248.753906 346.835938 " fill-opacity="1" fill-rule="nonzero"/><path fill="#ffffff" d="M 325.933594 294.992188 L 325.851562 295.027344 L 323.972656 293.777344 L 319.332031 290.695312 L 319.859375 298.503906 L 313.722656 303.363281 L 321.3125 305.277344 L 322.445312 308.328125 L 323.875 312.179688 L 324.039062 312.613281 L 328.203125 305.988281 L 336.023438 305.660156 L 331.007812 299.652344 L 333.113281 292.113281 L 325.933594 294.992188 " fill-opacity="1" fill-rule="nonzero"/><path fill="#ffffff" d="M 97.535156 270.523438 L 100.246094 271.367188 L 101.382812 271.722656 L 105.519531 285.035156 L 113.570312 273.652344 L 127.511719 273.832031 L 119.171875 262.660156 L 119.390625 262.011719 L 120.273438 259.421875 L 123.652344 249.457031 L 110.449219 253.933594 L 99.277344 245.59375 L 99.453125 259.535156 L 88.074219 267.582031 L 97.535156 270.523438 " fill-opacity="1" fill-rule="nonzero"/></svg>