<svg id="Layer_1" data-name="Layer 1" xmlns="http://www.w3.org/2000/svg" viewBox="0 0 617.31 588.5"><defs><style>.cls-1{fill:#d9ecd3;}.cls-2{fill:none;stroke:#414142;stroke-linecap:round;stroke-linejoin:round;stroke-width:3px;}</style></defs><circle class="cls-1" cx="293.27" cy="298.54" r="284.21"/><path class="cls-2" d="M324.91,274.25s-5.57,18.29,12.57,26.28,42.19,3.6,42.19,3.6,9.22,13,23.65,18.63,27.79-8.55,27.79-8.55c5.91-29.08-26.26-54.63-48-72.49s-36-20.29-36-20.29"/><path class="cls-2" d="M368.62,256.1s-8-10.63-24.6-5.52"/><path class="cls-2" d="M363.6,252.36s-1.91,6.18-8.1,5.47-5.27-7.55-5.27-7.55"/><path class="cls-2" d="M421.74,303.15s-5.81-2.7-8.42,2.58"/><path class="cls-2" d="M319.65,244a24.59,24.59,0,0,0,14.16-2.71c14.91-7.84,14.49-14,14.49-14s-26.49-36.42-71.76-51c-.49-.14-38-11.57-55.59-15.57,0,0,69.69,46.37,83.14,76.09"/><path class="cls-2" d="M333.07,210.59s-6.54,15.65-34.35,17.14"/><path class="cls-2" d="M315,195.79s-5.6,12-28.62,17.55"/><path class="cls-2" d="M295.63,184.09s-5.49,11.7-21,18"/><path class="cls-2" d="M276.54,176.24s-.27,7.07-13.43,15.92"/><path class="cls-2" d="M258.07,170.75s-1.23,4.93-9.13,10.13"/><path class="cls-2" d="M240.76,165.81s-.47,2.05-5.68,4.75"/><path class="cls-2" d="M324.93,248.54S300.65,233.62,284,232.63a67,67,0,0,0-15,.73s7.38,21.16,16.51,26a53.06,53.06,0,0,0,16.52,5.74"/><path class="cls-2" d="M309.45,253.56s-22-20.67-40.42-20.2"/><path class="cls-2" d="M292.32,264.46S274,305.48,246.17,327"/><path class="cls-2" d="M355.15,309.67s-16.85,37.52-17,58.16"/><path class="cls-2" d="M365.73,224.56S315.08,162.26,255,150.21c0,0,18.29,13.14,28.7,28.57"/><path class="cls-2" d="M168.7,339.66s7.57,13.46,25.42,7.64,26.31,5.45,27.69,8.32l1.12,1.29s7.57,13.45,25.42,7.63S274.67,370,276,372.87l1.53,1.62S285.14,388,303,382.13s26.31,5.45,27.69,8.32l1.12,1.28s7.57,13.46,25.42,7.64,26.32,5.45,27.69,8.32"/><path class="cls-2" d="M162.72,359.56s7.57,13.46,25.42,7.64,26.31,5.45,27.69,8.32L217,376.8s7.57,13.46,25.42,7.64,26.32,5.45,27.69,8.32l1.53,1.63S279.16,407.84,297,402s26.31,5.45,27.69,8.32l1.12,1.28s7.57,13.46,25.42,7.64,26.32,5.45,27.69,8.32"/><path class="cls-2" d="M154.72,378.85s7.57,13.46,25.42,7.64,26.31,5.45,27.68,8.32l1.13,1.28s7.57,13.46,25.42,7.64,26.31,5.45,27.69,8.32l1.53,1.63s7.57,13.45,25.42,7.64,26.31,5.45,27.68,8.32l1.13,1.28s7.57,13.46,25.42,7.64,26.31,5.45,27.69,8.32"/></svg>