<svg xmlns="http://www.w3.org/2000/svg" xmlns:xlink="http://www.w3.org/1999/xlink" width="500" zoomAndPan="magnify" viewBox="0 0 375 374.999991" height="500" preserveAspectRatio="xMidYMid meet" version="1.0"><defs><clipPath id="293d6138e2"><path d="M 341 63.085938 L 374.847656 63.085938 L 374.847656 97.492188 L 341 97.492188 Z M 341 63.085938 " clip-rule="nonzero"/></clipPath><clipPath id="699042e087"><path d="M 0.148438 267.167969 L 44.257812 267.167969 L 44.257812 311.238281 L 0.148438 311.238281 Z M 0.148438 267.167969 " clip-rule="nonzero"/></clipPath><clipPath id="2deb1d95f0"><path d="M 311 37.5 L 339 37.5 L 339 65 L 311 65 Z M 311 37.5 " clip-rule="nonzero"/></clipPath></defs><path fill="#ffffff" d="M 118.527344 186.703125 L 119.085938 187.417969 L 259.703125 163.492188 L 261.09375 161.480469 L 118.847656 185.683594 L 118.527344 186.703125 " fill-opacity="1" fill-rule="nonzero"/><path fill="#ffffff" d="M 272.21875 116.75 L 274.515625 145.261719 L 276.164062 143.9375 L 273.972656 116.726562 L 272.882812 116.300781 L 272.21875 116.75 " fill-opacity="1" fill-rule="nonzero"/><path fill="#ffffff" d="M 116.757812 258.734375 L 36.5 284.710938 L 34.875 286.847656 L 35.109375 286.992188 L 118.320312 260.03125 L 118.308594 259.714844 L 116.757812 258.734375 " fill-opacity="1" fill-rule="nonzero"/><path fill="#ffffff" d="M 134.019531 256.382812 L 134.621094 257.894531 L 324.207031 254.839844 L 319.503906 253.167969 L 134.171875 256.15625 L 134.019531 256.382812 " fill-opacity="1" fill-rule="nonzero"/><path fill="#ffffff" d="M 351.457031 73.960938 L 351.5625 73.578125 L 334.234375 57.445312 L 331.695312 57.46875 L 349.964844 74.476562 L 351.457031 73.960938 " fill-opacity="1" fill-rule="nonzero"/><path fill="#ffffff" d="M 319.730469 181.953125 L 319.679688 180.5625 L 284.105469 162.574219 L 283.867188 162.660156 L 283.449219 164.203125 L 319.253906 182.304688 L 319.730469 181.953125 " fill-opacity="1" fill-rule="nonzero"/><path fill="#ffffff" d="M 319.820312 57.144531 L 319.488281 56.15625 L 318.59375 55.898438 L 275.707031 104.023438 L 277.984375 104.097656 L 319.820312 57.144531 " fill-opacity="1" fill-rule="nonzero"/><path fill="#ffffff" d="M 32.351562 277.835938 L 103.796875 195.105469 L 103.660156 194.699219 L 102.203125 194.28125 L 29.4375 278.535156 L 29.441406 278.542969 L 32.351562 277.835938 " fill-opacity="1" fill-rule="nonzero"/><path fill="#ffffff" d="M 336.683594 233.894531 L 337.847656 230.628906 L 330.914062 194.074219 L 329.523438 196.132812 L 336.683594 233.894531 " fill-opacity="1" fill-rule="nonzero"/><g clip-path="url(#293d6138e2)"><path fill="#ffffff" d="M 374.847656 72.390625 L 362.855469 72.894531 L 355.636719 63.304688 L 352.523438 74.472656 L 352.414062 74.867188 L 350.929688 75.375 L 341.058594 78.765625 L 351.0625 85.402344 L 351.257812 97.40625 L 360.667969 89.949219 L 372.140625 93.46875 L 367.953125 82.21875 L 374.847656 72.390625 " fill-opacity="1" fill-rule="nonzero"/></g><g clip-path="url(#699042e087)"><path fill="#ffffff" d="M 33.648438 287.464844 L 33.164062 287.171875 L 34.558594 285.339844 L 40.921875 276.957031 L 31.039062 279.351562 L 28.460938 279.980469 L 28.421875 279.710938 L 26.722656 267.269531 L 20.046875 278.21875 L 9.835938 270.460938 L 12.855469 282.925781 L 0.148438 284.660156 L 11.097656 291.339844 L 3.339844 301.550781 L 15.800781 298.53125 L 17.539062 311.238281 L 24.214844 300.289062 L 34.425781 308.046875 L 31.40625 295.582031 L 44.113281 293.847656 L 33.648438 287.464844 " fill-opacity="1" fill-rule="nonzero"/></g><path fill="#ffffff" d="M 272.476562 163.8125 L 279.765625 173.351562 L 282.386719 163.664062 L 282.851562 161.941406 L 282.902344 161.765625 L 294.222656 157.777344 L 284.171875 151.214844 L 283.878906 139.214844 L 276.273438 145.34375 L 274.628906 146.667969 L 274.53125 146.746094 L 263.03125 143.316406 L 267.304688 154.53125 L 262.699219 161.207031 L 261.308594 163.21875 L 260.484375 164.410156 L 272.476562 163.8125 " fill-opacity="1" fill-rule="nonzero"/><path fill="#ffffff" d="M 349.5625 247.113281 L 354.90625 235.867188 L 343.664062 241.214844 L 339.488281 229.484375 L 338.277344 232.898438 L 337.117188 236.160156 L 335.320312 241.214844 L 324.074219 235.867188 L 329.421875 247.113281 L 317.691406 251.285156 L 322.828125 253.113281 L 327.535156 254.785156 L 329.421875 255.457031 L 324.074219 266.703125 L 335.320312 261.355469 L 339.488281 273.085938 L 343.664062 261.355469 L 354.90625 266.703125 L 349.5625 255.457031 L 361.292969 251.285156 L 349.5625 247.113281 " fill-opacity="1" fill-rule="nonzero"/><path fill="#ffffff" d="M 132.710938 256.246094 L 132.757812 256.175781 L 137.96875 248.378906 L 128.523438 248.988281 L 122.664062 241.554688 L 120.328125 250.726562 L 111.445312 254 L 118.199219 258.269531 L 119.449219 259.058594 L 119.472656 259.65625 L 119.816406 268.515625 L 127.101562 262.46875 L 136.210938 265.042969 L 133.375 257.914062 L 132.710938 256.246094 " fill-opacity="1" fill-rule="nonzero"/><path fill="#ffffff" d="M 94.921875 190.980469 L 103.042969 193.308594 L 104.570312 193.746094 L 104.683594 194.082031 L 107.761719 203.261719 L 113.375 194.941406 L 123.410156 194.847656 L 117.777344 187.640625 L 117.230469 186.9375 L 117.558594 185.902344 L 120.242188 177.363281 L 110.8125 180.796875 L 102.636719 174.972656 L 102.988281 185.003906 L 94.921875 190.980469 " fill-opacity="1" fill-rule="nonzero"/><path fill="#ffffff" d="M 334.570312 184.378906 L 337.457031 175.199219 L 328.417969 178.488281 L 320.582031 172.90625 L 320.871094 181.164062 L 320.917969 182.523438 L 320.421875 182.890625 L 313.1875 188.25 L 322.433594 190.902344 L 325.496094 200.027344 L 329.214844 194.507812 L 330.605469 192.445312 L 330.875 192.050781 L 340.496094 191.957031 L 334.570312 184.378906 " fill-opacity="1" fill-rule="nonzero"/><path fill="#ffffff" d="M 266.933594 118.925781 L 272.113281 115.414062 L 272.734375 114.992188 L 273.867188 115.433594 L 279.265625 117.539062 L 277.316406 110.808594 L 281.753906 105.382812 L 276.972656 105.230469 L 274.75 105.160156 L 274.726562 105.125 L 270.964844 99.261719 L 268.585938 105.851562 L 261.804688 107.628906 L 267.339844 111.929688 L 266.933594 118.925781 " fill-opacity="1" fill-rule="nonzero"/><g clip-path="url(#2deb1d95f0)"><path fill="#ffffff" d="M 319.453125 54.933594 L 320.398438 55.203125 L 320.714844 56.144531 L 323.40625 64.179688 L 328.703125 56.332031 L 330.457031 56.316406 L 332.996094 56.289062 L 338.167969 56.242188 L 332.339844 48.785156 L 335.179688 39.753906 L 326.285156 42.992188 L 318.574219 37.5 L 318.90625 46.960938 L 311.300781 52.59375 L 319.453125 54.933594 " fill-opacity="1" fill-rule="nonzero"/></g></svg>