<svg id="Layer_1" data-name="Layer 1" xmlns="http://www.w3.org/2000/svg" viewBox="0 0 617.31 588.5"><defs><style>.cls-1{fill:#f5dec6;}.cls-2{fill:none;stroke:#414142;stroke-linecap:round;stroke-linejoin:round;stroke-width:3px;}</style></defs><circle class="cls-1" cx="308.66" cy="292.35" r="281.83"/><polyline class="cls-2" points="300.11 228.1 320.85 228.1 359.56 270.52 348.41 303.03"/><path class="cls-2" d="M302,292.79s5.63.26,10.62,0,7,3,5.25,7-11,3.24-11,3.24c-.75,8-4.88,7.43-4.88,7.43v8.31l23,18.06s18.1.51,21.71-21.41-11.95-28.9-11.95-28.9"/><path class="cls-2" d="M323.56,335.72s.68,11.7-11.32,12.2H302"/><path class="cls-2" d="M348.37,225.69s14.61-10.82,29.82-7.62c0,0,5,23.45-7.92,30.43"/><path class="cls-2" d="M343.75,224.81s21.15,13.54,25.68,28.09"/><path class="cls-2" d="M378.19,218.07s-15.67,3.42-21.54,16.93"/><polyline class="cls-2" points="303.66 228.1 282.92 228.1 244.22 270.52 255.36 303.03"/><path class="cls-2" d="M301.8,292.79s-5.63.26-10.62,0-7,3-5.25,7,11,3.24,11,3.24c.75,8,4.88,7.43,4.88,7.43v8.31l-23,18.06s-18.1.51-21.71-21.41,12-28.9,12-28.9"/><path class="cls-2" d="M280.21,335.72s-.68,11.7,11.32,12.2H301.8"/><path class="cls-2" d="M254.82,224.81s-15.37-9.71-30.3-5.4c0,0-3.21,23.76,10.16,29.76"/><path class="cls-2" d="M259.37,223.59s-20.09,15.07-23.53,29.91"/><path class="cls-2" d="M224.52,219.41s15.89,2.25,22.74,15.3"/><path class="cls-2" d="M293.73,180.32s27.52-19.51,44.78-21.85c0,0-14,21.46-14.46,29.39,0,0,31.79-19.59,65.34-14.69,0,0-17,12-14,27.29,0,0,33.55,1.8,51.27,26.09,0,0-17.26,1.43-19.12,13.56,0,0,23.32,25.18,24.72,46.64,0,0-16.79-9.79-26.59-9.79,0,0,10.73,39.65-5.13,69,0,0-2.74-6.53-15.13-10.26,0,0-4.93,41.52-22.42,54.11,0,0,4-14.46,0-20.06a70.34,70.34,0,0,1-33.84,22.86c-22.37,7-25.71,29.85-25.21,33.59,0,0-10.74-21-24.24-28.46,0,0-5.11,14,2.36,21,0,0-47.58-27.52-51.78-65.3,0,0-6.65,7.46-8,13.52,0,0-15.8-10.22-16.27-44.29,0,0-12.12,6-12.12,13.51,0,0-7.47-30.32,4.66-59.71,0,0-10.73.93-13.53,7.93,0,0,.47-35,18.66-60.17,0,0-11.66-3.74-18.66-1.87,0,0,20.44-25.66,50.8-26.12,0,0-6.14-12.13-17.51-16.33C218.33,179.93,251.28,161.67,293.73,180.32Z"/></svg>