<svg xmlns="http://www.w3.org/2000/svg" xmlns:xlink="http://www.w3.org/1999/xlink" width="500" zoomAndPan="magnify" viewBox="0 0 375 374.999991" height="500" preserveAspectRatio="xMidYMid meet" version="1.0"><defs><clipPath id="c5fe7fb868"><path d="M 22.265625 128 L 44 128 L 44 150 L 22.265625 150 Z M 22.265625 128 " clip-rule="nonzero"/></clipPath><clipPath id="df2674eb1c"><path d="M 148.433594 355.882812 L 166.929688 355.882812 L 166.929688 375 L 148.433594 375 Z M 148.433594 355.882812 " clip-rule="nonzero"/></clipPath><clipPath id="e2cb03a872"><path d="M 308.757812 92.199219 L 352.539062 92.199219 L 352.539062 136.246094 L 308.757812 136.246094 Z M 308.757812 92.199219 " clip-rule="nonzero"/></clipPath></defs><path fill="#ffffff" d="M 162.089844 341.433594 L 160.636719 340.40625 L 160.429688 340.480469 L 158.753906 357.511719 L 160.332031 359.300781 L 162.089844 341.433594 " fill-opacity="1" fill-rule="nonzero"/><path fill="#ffffff" d="M 149.285156 100.074219 L 208.714844 22.734375 L 207.917969 21.390625 L 207.5625 21.367188 L 149.332031 97.152344 L 150.003906 96.839844 L 149.492188 99.140625 L 149.285156 100.074219 " fill-opacity="1" fill-rule="nonzero"/><path fill="#ffffff" d="M 80.976562 141.71875 L 80.828125 142.921875 L 81.441406 143.460938 L 134.003906 113.707031 L 131.367188 113.191406 L 80.976562 141.71875 " fill-opacity="1" fill-rule="nonzero"/><path fill="#ffffff" d="M 289.890625 261.695312 L 290.460938 261.152344 L 292.160156 259.519531 L 292.199219 259.886719 L 328.1875 129.320312 L 327.054688 126.847656 L 289.890625 261.695312 " fill-opacity="1" fill-rule="nonzero"/><path fill="#ffffff" d="M 61.523438 145.027344 L 62.648438 143.816406 L 62.5625 143.4375 L 41.511719 139.785156 L 40.15625 141.320312 L 61.523438 145.027344 " fill-opacity="1" fill-rule="nonzero"/><path fill="#ffffff" d="M 314.296875 99.128906 L 317.660156 100.382812 L 221.5 19.957031 L 219.351562 20.4375 L 312.753906 98.554688 L 314.296875 99.128906 " fill-opacity="1" fill-rule="nonzero"/><path fill="#ffffff" d="M 172.816406 325.878906 L 175.464844 326.632812 L 271.871094 284.960938 L 273.300781 282.445312 L 172.816406 325.878906 " fill-opacity="1" fill-rule="nonzero"/><path fill="#ffffff" d="M 216.253906 26.800781 L 282.761719 267.921875 L 283.296875 268.03125 L 284.328125 267.039062 L 217.328125 24.132812 L 216.253906 26.800781 " fill-opacity="1" fill-rule="nonzero"/><path fill="#ffffff" d="M 146.613281 106.761719 L 147.613281 102.253906 L 148.359375 98.890625 L 147.792969 99.152344 L 141.050781 102.296875 L 134.101562 98.207031 L 135.082031 106.207031 L 135.082031 106.210938 L 129.046875 111.554688 L 132.925781 112.308594 L 135.5625 112.820312 L 136.960938 113.09375 L 140.179688 120.484375 L 144.089844 113.4375 L 152.113281 112.660156 L 146.613281 106.761719 " fill-opacity="1" fill-rule="nonzero"/><path fill="#ffffff" d="M 79.601562 143.390625 L 79.714844 142.429688 L 80.917969 132.503906 L 71.476562 138.078125 L 61.535156 133.460938 L 63.804688 143.648438 L 63.917969 144.160156 L 62.894531 145.265625 L 56.453125 152.191406 L 67.367188 153.230469 L 72.695312 162.8125 L 77.058594 152.753906 L 87.816406 150.644531 L 80.367188 144.066406 L 79.601562 143.390625 " fill-opacity="1" fill-rule="nonzero"/><g clip-path="url(#c5fe7fb868)"><path fill="#ffffff" d="M 38.859375 141.03125 L 40.164062 139.554688 L 43.804688 135.433594 L 36.351562 134.914062 L 32.554688 128.480469 L 29.753906 135.40625 L 22.464844 137.03125 L 28.1875 141.832031 L 27.476562 149.269531 L 33.8125 145.308594 L 40.667969 148.28125 L 38.875 141.101562 L 38.859375 141.03125 " fill-opacity="1" fill-rule="nonzero"/></g><path fill="#ffffff" d="M 173.777344 327.359375 L 171.128906 326.605469 L 167.332031 325.523438 L 163.972656 315.558594 L 158.105469 324.285156 L 147.589844 324.402344 L 154.078125 332.679688 L 150.9375 342.710938 L 160.558594 339.195312 L 160.8125 339.101562 L 162.222656 340.101562 L 169.386719 345.1875 L 169.003906 334.679688 L 177.441406 328.40625 L 173.777344 327.359375 " fill-opacity="1" fill-rule="nonzero"/><g clip-path="url(#df2674eb1c)"><path fill="#ffffff" d="M 160.257812 360.976562 L 160.175781 360.886719 L 158.597656 359.09375 L 155.863281 355.992188 L 154.578125 362.511719 L 148.480469 365.148438 L 154.285156 368.382812 L 154.90625 375 L 159.78125 370.480469 L 166.261719 371.929688 L 163.472656 365.902344 L 166.855469 360.183594 L 160.257812 360.976562 " fill-opacity="1" fill-rule="nonzero"/></g><path fill="#ffffff" d="M 208.414062 20.257812 L 208.609375 20.273438 L 209.476562 21.742188 L 213.976562 29.347656 L 215.746094 24.953125 L 216.816406 22.285156 L 217.910156 19.566406 L 218.226562 19.496094 L 220.371094 19.015625 L 228.203125 17.261719 L 220.117188 10.496094 L 221.105469 0 L 212.171875 5.601562 L 202.496094 1.410156 L 205.058594 11.640625 L 198.089844 19.550781 L 208.414062 20.257812 " fill-opacity="1" fill-rule="nonzero"/><path fill="#ffffff" d="M 291.367188 262.910156 L 291.265625 261.992188 L 289.289062 263.890625 L 284.679688 268.316406 L 283.660156 269.292969 L 283.109375 269.179688 L 273.332031 267.171875 L 277.929688 276.660156 L 275.078125 281.675781 L 273.644531 284.195312 L 272.71875 285.824219 L 283.164062 284.386719 L 290.269531 292.175781 L 292.128906 281.796875 L 301.730469 277.445312 L 292.4375 272.46875 L 291.367188 262.910156 " fill-opacity="1" fill-rule="nonzero"/><g clip-path="url(#e2cb03a872)"><path fill="#ffffff" d="M 341.148438 117.621094 L 352.539062 112.414062 L 340.417969 109.261719 L 344.789062 97.523438 L 333.992188 103.863281 L 333.988281 103.863281 L 328.785156 92.472656 L 325.628906 104.59375 L 320.339844 102.621094 L 315.433594 100.792969 L 313.890625 100.21875 L 320.230469 111.019531 L 308.839844 116.230469 L 320.960938 119.382812 L 316.589844 131.117188 L 327.390625 124.78125 L 327.539062 125.101562 L 328.667969 127.574219 L 332.597656 136.171875 L 335.75 124.050781 L 347.484375 128.421875 L 341.148438 117.621094 " fill-opacity="1" fill-rule="nonzero"/></g></svg>