<svg id="Layer_1" data-name="Layer 1" xmlns="http://www.w3.org/2000/svg" viewBox="0 0 617.31 588.5"><defs><style>.cls-1{fill:#e5f3ec;}.cls-2{fill:none;stroke:#414142;stroke-linecap:round;stroke-linejoin:round;stroke-width:3px;}</style></defs><circle class="cls-1" cx="313.57" cy="295.44" r="280.33"/><path class="cls-2" d="M217.24,338.77s16-30.78,37.52-46.93,63.71-43.07,73.58-76.27-4.49-39.48-4.49-39.48-17.9-5.38-49.33,22.44S209.33,262.77,217.24,338.77Z"/><path class="cls-2" d="M267,206.88s-31.87-7.27-47.77,10.47c0,0-8.61,10.13-11.13,14.08,0,0,24.78-4.23,36.52,0"/><path class="cls-2" d="M310.82,246.1s7.38,31.84-10.31,47.8c0,0-10.1,8.63-14,11.17,0,0,4.14-24.8-.12-36.52"/><path class="cls-2" d="M302.71,203.31S298.77,212,268.6,240.1,240,275.6,240,275.6"/><path class="cls-2" d="M216.08,320.56s-25.93,18.84-44.47,23.62c0,0,18.28,6.52,45.63-5.41"/><path class="cls-2" d="M228.11,322.85s13.27,29.17,27,42.48c0,0-19.12-3.35-37-27.21"/><path class="cls-2" d="M409.86,252.68s-16.15,30.69-37.78,46.72-63.95,42.71-74,75.85,4.26,39.51,4.26,39.51,17.87,5.48,49.45-22.16S417.34,328.73,409.86,252.68Z"/><path class="cls-2" d="M359.37,384.29s31.82,7.45,47.82-10.2c0,0,8.66-10.09,11.21-14,0,0-24.81,4.08-36.52-.21"/><path class="cls-2" d="M315.76,344.83s-7.2-31.89,10.58-47.74c0,0,10.16-8.58,14.1-11.1,0,0-4.28,24.77-.08,36.52"/><path class="cls-2" d="M326.82,384.48s4-8.65,34.33-36.6,28.79-35.33,28.79-35.33"/><path class="cls-2" d="M410.93,270.9s26-18.69,44.59-23.37c0,0-18.24-6.62-45.66,5.15"/><path class="cls-2" d="M398.91,268.54s-13.11-29.25-26.81-42.63c0,0,19.1,3.45,36.88,27.41"/></svg>