<svg xmlns="http://www.w3.org/2000/svg" xmlns:xlink="http://www.w3.org/1999/xlink" width="500" zoomAndPan="magnify" viewBox="0 0 375 374.999991" height="500" preserveAspectRatio="xMidYMid meet" version="1.0"><defs><clipPath id="eac220f0c1"><path d="M 339.234375 230.378906 L 375 230.378906 L 375 266.34375 L 339.234375 266.34375 Z M 339.234375 230.378906 " clip-rule="nonzero"/></clipPath><clipPath id="f779269c1e"><path d="M 0 272 L 42 272 L 42 313.964844 L 0 313.964844 Z M 0 272 " clip-rule="nonzero"/></clipPath><clipPath id="62d304e195"><path d="M 98 37.5 L 115 37.5 L 115 55 L 98 55 Z M 98 37.5 " clip-rule="nonzero"/></clipPath></defs><path fill="#ffffff" d="M 34.234375 289.210938 L 37.15625 290.300781 L 84.980469 279.410156 L 83.5 278 L 34.234375 289.210938 " fill-opacity="1" fill-rule="nonzero"/><path fill="#ffffff" d="M 91.390625 174.738281 L 72.402344 218.207031 L 72.996094 219.082031 L 73.863281 219.085938 L 92.890625 175.566406 L 92.050781 174.648438 L 91.390625 174.738281 " fill-opacity="1" fill-rule="nonzero"/><path fill="#ffffff" d="M 105.6875 98.464844 L 106.269531 54.472656 L 104.589844 52.207031 L 103.996094 97.402344 L 105.519531 98.523438 L 105.6875 98.464844 " fill-opacity="1" fill-rule="nonzero"/><path fill="#ffffff" d="M 91.550781 62.53125 L 103.035156 50.617188 L 100.574219 50.703125 L 87.980469 63.765625 L 89.628906 63.195312 L 91.550781 62.53125 " fill-opacity="1" fill-rule="nonzero"/><path fill="#ffffff" d="M 104.285156 113.449219 L 102.96875 115.339844 L 102.503906 113.878906 L 96.015625 157.695312 L 97.667969 156.109375 L 98.003906 155.789062 L 104.285156 113.449219 " fill-opacity="1" fill-rule="nonzero"/><path fill="#ffffff" d="M 99.511719 97.164062 L 87.109375 82.757812 L 84.839844 82.742188 L 99.566406 99.847656 L 99.511719 97.164062 " fill-opacity="1" fill-rule="nonzero"/><path fill="#ffffff" d="M 211.832031 252.261719 L 278.441406 245.355469 L 277.128906 244.886719 L 279.070312 243.632812 L 279.1875 243.558594 L 213.476562 250.386719 L 211.832031 252.261719 " fill-opacity="1" fill-rule="nonzero"/><path fill="#ffffff" d="M 289.203125 250.753906 L 295.417969 268.992188 L 297.515625 269.84375 L 290.457031 249.132812 L 289.203125 250.753906 " fill-opacity="1" fill-rule="nonzero"/><path fill="#ffffff" d="M 312.03125 225.242188 L 296.695312 236.09375 L 295.917969 238.089844 L 295.570312 238.984375 L 314.101562 225.871094 L 312.03125 225.242188 " fill-opacity="1" fill-rule="nonzero"/><path fill="#ffffff" d="M 340.179688 269.132812 L 341.265625 268.859375 L 342.988281 268.425781 L 350.613281 259.246094 L 347.03125 260.882812 L 340.179688 269.132812 " fill-opacity="1" fill-rule="nonzero"/><path fill="#ffffff" d="M 327.582031 227.261719 L 345.746094 240.621094 L 344.289062 237.425781 L 330.492188 227.28125 L 327.582031 227.261719 " fill-opacity="1" fill-rule="nonzero"/><path fill="#ffffff" d="M 325.21875 275.523438 L 308.421875 276.160156 L 310.464844 277.796875 L 325.359375 277.230469 L 323.558594 276.503906 L 325.21875 275.523438 " fill-opacity="1" fill-rule="nonzero"/><path fill="#ffffff" d="M 328.929688 226.128906 L 330.617188 226.140625 L 325.640625 219.5625 L 328.238281 211.730469 L 320.441406 214.429688 L 313.796875 209.542969 L 313.957031 217.792969 L 307.25 222.597656 L 313.207031 224.40625 L 315.148438 224.996094 L 315.179688 225.105469 L 317.648438 232.859375 L 322.367188 226.089844 L 326.019531 226.113281 L 328.929688 226.128906 " fill-opacity="1" fill-rule="nonzero"/><path fill="#ffffff" d="M 149.503906 268.597656 L 147.933594 270.882812 L 194.605469 255.875 L 194.753906 254.238281 L 194.589844 254.101562 L 149.503906 268.597656 " fill-opacity="1" fill-rule="nonzero"/><path fill="#ffffff" d="M 134.765625 272.015625 L 102.390625 275.289062 L 100.484375 277.191406 L 137.011719 273.492188 L 137.011719 273.476562 L 134.765625 272.015625 " fill-opacity="1" fill-rule="nonzero"/><path fill="#ffffff" d="M 288.761719 249.460938 L 290.019531 247.839844 L 290.214844 247.585938 L 296.023438 247.910156 L 292.75 243.101562 L 293.882812 240.179688 L 294.15625 239.480469 L 294.855469 237.675781 L 294.171875 237.875 L 289.265625 239.304688 L 284.757812 235.625 L 284.582031 241.441406 L 281.699219 243.296875 L 279.6875 244.59375 L 281.058594 245.085938 L 281.136719 245.113281 L 285.167969 246.558594 L 285.558594 248.042969 L 286.652344 252.1875 L 288.761719 249.460938 " fill-opacity="1" fill-rule="nonzero"/><path fill="#ffffff" d="M 65.039062 233.253906 L 65.082031 231.792969 L 65.128906 230.28125 L 27.863281 280.863281 L 31.054688 279.40625 L 65.039062 233.253906 " fill-opacity="1" fill-rule="nonzero"/><path fill="#ffffff" d="M 100.597656 275.46875 L 102.324219 273.746094 L 94.925781 272.761719 L 91.542969 266.109375 L 88.320312 272.839844 L 80.953125 274 L 83.585938 276.507812 L 84.835938 277.695312 L 86.316406 279.105469 L 86.355469 279.144531 L 85.183594 286.515625 L 91.746094 282.964844 L 98.390625 286.355469 L 97.042969 279.015625 L 98.691406 277.371094 L 100.597656 275.46875 " fill-opacity="1" fill-rule="nonzero"/><g clip-path="url(#eac220f0c1)"><path fill="#ffffff" d="M 375.003906 248.710938 L 365.449219 245.144531 L 369.96875 236 L 360.6875 240.238281 L 357.417969 230.574219 L 353.855469 240.128906 L 344.710938 235.609375 L 346.171875 238.8125 L 347.632812 242.011719 L 348.945312 244.886719 L 339.285156 248.15625 L 348.839844 251.722656 L 344.320312 260.867188 L 348.710938 258.863281 L 352.292969 257.226562 L 353.597656 256.632812 L 356.867188 266.292969 L 360.433594 256.738281 L 369.574219 261.257812 L 365.339844 251.980469 L 375.003906 248.710938 " fill-opacity="1" fill-rule="nonzero"/></g><g clip-path="url(#f779269c1e)"><path fill="#ffffff" d="M 41.957031 293.308594 L 35.128906 290.761719 L 32.207031 289.671875 L 30.730469 289.121094 L 36.042969 278.382812 L 29.664062 281.292969 L 26.46875 282.75 L 25.144531 283.355469 L 22.273438 274.875 L 21.304688 272.007812 L 17.113281 283.234375 L 6.375 277.921875 L 11.351562 288.820312 L 0 292.660156 L 11.226562 296.851562 L 5.914062 307.589844 L 16.8125 302.613281 L 20.652344 313.964844 L 24.84375 302.738281 L 35.582031 308.050781 L 30.605469 297.148438 L 41.957031 293.308594 " fill-opacity="1" fill-rule="nonzero"/></g><path fill="#ffffff" d="M 210.164062 252.433594 L 211.808594 250.558594 L 216.460938 245.253906 L 206.652344 244.605469 L 201.625 236.15625 L 197.976562 245.285156 L 188.390625 247.453125 L 195.875 253.6875 L 195.945312 253.746094 L 195.78125 255.496094 L 195.046875 263.535156 L 203.363281 258.292969 L 212.394531 262.171875 L 209.980469 252.644531 L 210.164062 252.433594 " fill-opacity="1" fill-rule="nonzero"/><path fill="#ffffff" d="M 306.679688 276.226562 L 306.050781 275.726562 L 306.667969 267.15625 L 299.492188 271.878906 L 298 271.273438 L 295.902344 270.417969 L 291.535156 268.644531 L 293.808594 276.925781 L 288.273438 283.496094 L 296.851562 283.894531 L 301.390625 291.191406 L 304.417969 283.152344 L 312.757812 281.09375 L 308.722656 277.863281 L 306.679688 276.226562 " fill-opacity="1" fill-rule="nonzero"/><path fill="#ffffff" d="M 74.214844 80.269531 L 77.234375 89.753906 L 82.925781 81.589844 L 83.855469 81.597656 L 86.121094 81.609375 L 92.875 81.652344 L 86.871094 73.714844 L 90.003906 64.273438 L 89.800781 64.34375 L 86.234375 65.578125 L 80.601562 67.53125 L 72.589844 61.632812 L 72.78125 71.582031 L 64.695312 77.378906 L 74.214844 80.269531 " fill-opacity="1" fill-rule="nonzero"/><path fill="#ffffff" d="M 146.3125 271.226562 L 147.726562 269.171875 L 149.609375 266.433594 L 143.796875 266.730469 L 140.253906 262.113281 L 138.746094 267.734375 L 133.257812 269.675781 L 136.578125 271.832031 L 138.136719 272.847656 L 138.148438 273.378906 L 138.289062 278.667969 L 142.8125 275.007812 L 148.390625 276.660156 L 146.371094 271.382812 L 146.3125 271.226562 " fill-opacity="1" fill-rule="nonzero"/><path fill="#ffffff" d="M 66.316406 228.664062 L 66.226562 231.640625 L 66.222656 231.824219 L 70.945312 228.425781 L 76.421875 230.390625 L 74.648438 224.847656 L 78.210938 220.246094 L 73.367188 220.222656 L 72.390625 220.21875 L 71.863281 219.441406 L 69.113281 215.410156 L 67.289062 220.9375 L 61.703125 222.566406 L 66.398438 226.007812 L 66.316406 228.664062 " fill-opacity="1" fill-rule="nonzero"/><path fill="#ffffff" d="M 97.726562 179.175781 L 99.09375 171.527344 L 106.171875 168.320312 L 99.320312 164.652344 L 98.457031 156.933594 L 97.730469 157.632812 L 95.742188 159.539062 L 92.855469 162.316406 L 85.246094 160.75 L 88.632812 167.742188 L 84.792969 174.496094 L 91.925781 173.515625 L 92.488281 173.4375 L 93.390625 174.425781 L 97.726562 179.175781 " fill-opacity="1" fill-rule="nonzero"/><path fill="#ffffff" d="M 341.359375 270.386719 L 341.542969 269.964844 L 338.945312 270.617188 L 335.898438 271.382812 L 331.527344 267.539062 L 331.136719 273.34375 L 327.609375 275.433594 L 326.128906 276.308594 L 328.152344 277.121094 L 331.527344 278.480469 L 332.566406 283.117188 L 332.800781 284.15625 L 336.53125 279.691406 L 342.328125 280.234375 L 339.234375 275.308594 L 341.359375 270.386719 " fill-opacity="1" fill-rule="nonzero"/><path fill="#ffffff" d="M 112.503906 108.054688 L 108.992188 103.414062 L 110.824219 97.890625 L 105.671875 99.675781 L 105.324219 99.796875 L 103.976562 98.804688 L 100.636719 96.347656 L 100.679688 98.519531 L 100.734375 101.203125 L 100.75 102.164062 L 96.023438 105.558594 L 101.589844 107.246094 L 102.882812 111.3125 L 103.355469 112.792969 L 104.664062 110.917969 L 106.683594 108.019531 L 112.503906 108.054688 " fill-opacity="1" fill-rule="nonzero"/><g clip-path="url(#62d304e195)"><path fill="#ffffff" d="M 101.714844 49.523438 L 103.960938 49.441406 L 104.050781 49.566406 L 104.613281 50.324219 L 106.296875 52.59375 L 107.425781 54.117188 L 109.027344 48.523438 L 114.542969 46.667969 L 109.71875 43.417969 L 109.660156 37.597656 L 105.078125 41.183594 L 99.523438 39.441406 L 101.515625 44.90625 L 98.144531 49.648438 L 101.714844 49.523438 " fill-opacity="1" fill-rule="nonzero"/></g></svg>