<svg id="Layer_1" data-name="Layer 1" xmlns="http://www.w3.org/2000/svg" viewBox="0 0 617.31 588.5"><defs><style>.cls-1{fill:#f5dec6;}.cls-2{fill:none;stroke:#414142;stroke-linecap:round;stroke-linejoin:round;stroke-width:3px;}</style></defs><circle class="cls-1" cx="304.08" cy="297.78" r="282.67"/><path class="cls-2" d="M342.09,257.87l0,.25c-17.57-23.75-45-26.14-81.12-32.7s-48.27-24.5-48.27-24.5,13.52,15,75.05,15.52c0,0,55.11,2.58,69,31"/><line class="cls-2" x1="244.95" y1="346.12" x2="385.49" y2="221.24"/><polygon class="cls-2" points="368.14 216.24 395.42 213.1 388.5 238.51 385.52 221.25 368.14 216.24"/><polyline class="cls-2" points="241.09 330.43 262.96 330.42 259.8 350.81"/><polyline class="cls-2" points="232.6 337.93 254.47 337.93 251.31 358.31"/><polyline class="cls-2" points="224.11 345.43 245.98 345.43 242.82 365.81"/><path class="cls-2" d="M344.21,259.81l-.24-.07c21.67,20.07,21,47.59,23.57,84.23s19,50.67,19,50.67-13.45-15.1-7.16-76.31c0,0,3.5-55.05-23.22-72"/><line class="cls-2" x1="236.65" y1="218.26" x2="372.96" y2="372.97"/></svg>