<svg xmlns="http://www.w3.org/2000/svg" xmlns:xlink="http://www.w3.org/1999/xlink" width="500" zoomAndPan="magnify" viewBox="0 0 375 374.999991" height="500" preserveAspectRatio="xMidYMid meet" version="1.0"><defs><clipPath id="faae78bb2a"><path d="M 72.574219 330.308594 L 117.535156 330.308594 L 117.535156 374.988281 L 72.574219 374.988281 Z M 72.574219 330.308594 " clip-rule="nonzero"/></clipPath><clipPath id="98b5af9247"><path d="M 359 93.816406 L 375 93.816406 L 375 110.304688 L 359 110.304688 Z M 359 93.816406 " clip-rule="nonzero"/></clipPath></defs><path fill="#ffffff" d="M 107.429688 346.894531 L 157.660156 315.777344 L 157.617188 314.691406 L 156.828125 314.195312 L 108.839844 343.925781 L 107.429688 346.894531 " fill-opacity="1" fill-rule="nonzero"/><path fill="#ffffff" d="M 116.832031 354.167969 L 112.554688 355.6875 L 178.113281 359.722656 L 176.15625 357.820312 L 116.832031 354.167969 " fill-opacity="1" fill-rule="nonzero"/><path fill="#ffffff" d="M 48.757812 157.957031 L 48.363281 158.140625 L 45.347656 159.578125 L 45.90625 158.402344 L 30.003906 175.460938 L 32.59375 175.292969 L 48.757812 157.957031 " fill-opacity="1" fill-rule="nonzero"/><path fill="#ffffff" d="M 20.480469 189.210938 L 20.464844 188.839844 L 20.375 186.519531 L 13.507812 194.949219 L 15.933594 194.792969 L 20.480469 189.210938 " fill-opacity="1" fill-rule="nonzero"/><path fill="#ffffff" d="M 78.425781 137.417969 L 85.734375 140.015625 L 134.640625 145.402344 L 133.054688 144.398438 L 135.070312 143.65625 L 78.425781 137.417969 " fill-opacity="1" fill-rule="nonzero"/><path fill="#ffffff" d="M 57.742188 280.035156 L 58.601562 278.296875 L 13.785156 206.996094 L 11.230469 206.273438 L 57.609375 280.054688 L 57.742188 280.035156 " fill-opacity="1" fill-rule="nonzero"/><path fill="#ffffff" d="M 89.492188 340.484375 L 71.179688 301.757812 L 68.566406 300.378906 L 86.953125 339.28125 L 89.492188 340.484375 " fill-opacity="1" fill-rule="nonzero"/><path fill="#ffffff" d="M 70.03125 299.324219 L 72.820312 300.789062 L 71.039062 290.394531 L 78.59375 283.03125 L 68.152344 281.511719 L 63.484375 272.054688 L 59.609375 279.902344 L 58.816406 281.511719 L 58.550781 281.550781 L 48.378906 283.03125 L 55.929688 290.394531 L 54.148438 300.789062 L 63.484375 295.878906 L 67.417969 297.949219 L 70.03125 299.324219 " fill-opacity="1" fill-rule="nonzero"/><path fill="#ffffff" d="M 88.164062 55.175781 L 103.109375 61.507812 L 105.554688 60.605469 L 87.234375 52.84375 L 88.164062 55.175781 " fill-opacity="1" fill-rule="nonzero"/><path fill="#ffffff" d="M 118.335938 68.039062 L 123.433594 70.253906 L 125.785156 69.390625 L 117.410156 65.71875 L 118.335938 68.039062 " fill-opacity="1" fill-rule="nonzero"/><path fill="#ffffff" d="M 139.371094 80.515625 L 137.054688 79.863281 L 136.835938 79.800781 L 168.253906 112.652344 L 168.769531 110.617188 L 138.933594 79.417969 L 139.371094 80.515625 " fill-opacity="1" fill-rule="nonzero"/><path fill="#ffffff" d="M 248.003906 88.734375 L 216.183594 111.535156 L 216.859375 111.441406 L 215.671875 113.535156 L 215.136719 114.476562 L 248.875 90.300781 L 248.835938 89.261719 L 248.003906 88.734375 " fill-opacity="1" fill-rule="nonzero"/><path fill="#ffffff" d="M 257.359375 81.121094 L 291.371094 23.179688 L 291.089844 22.84375 L 289.40625 23.007812 L 255.609375 80.582031 L 256.097656 81.203125 L 257.359375 81.121094 " fill-opacity="1" fill-rule="nonzero"/><path fill="#ffffff" d="M 163.550781 164.011719 L 164.898438 163.519531 L 165.039062 162.960938 L 151.84375 150.664062 L 151.976562 150.996094 L 152.863281 153.230469 L 151.597656 152.875 L 163.550781 164.011719 " fill-opacity="1" fill-rule="nonzero"/><path fill="#ffffff" d="M 202.953125 123.257812 L 173.570312 161.988281 L 175.917969 161.839844 L 203.234375 125.777344 L 202.953125 123.257812 " fill-opacity="1" fill-rule="nonzero"/><path fill="#ffffff" d="M 273.488281 123.085938 L 258.117188 92.878906 L 255.78125 92.222656 L 272.632812 125.332031 L 273.488281 123.085938 " fill-opacity="1" fill-rule="nonzero"/><path fill="#ffffff" d="M 363.039062 105.480469 L 336.605469 129.574219 L 338.59375 130.171875 L 364.0625 106.957031 L 363.648438 105.664062 L 363.039062 105.480469 " fill-opacity="1" fill-rule="nonzero"/><path fill="#ffffff" d="M 320.222656 136.480469 L 319.214844 135.160156 L 282.808594 130.296875 L 281.664062 131.644531 L 281.75 131.957031 L 320.027344 137.066406 L 320.222656 136.480469 " fill-opacity="1" fill-rule="nonzero"/><path fill="#ffffff" d="M 305.875 216.132812 L 306.09375 215.269531 L 286.617188 200.984375 L 286.359375 203.011719 L 304.792969 216.527344 L 305.875 216.132812 " fill-opacity="1" fill-rule="nonzero"/><path fill="#ffffff" d="M 275.425781 136.863281 L 276.570312 186.617188 L 278.3125 184.761719 L 277.195312 136.304688 L 276.632812 136.074219 L 275.425781 136.863281 " fill-opacity="1" fill-rule="nonzero"/><path fill="#ffffff" d="M 151.925781 140.050781 L 167.09375 124.589844 L 167.058594 123.726562 L 166.0625 123.09375 L 149.257812 140.222656 L 151.871094 140.054688 L 151.925781 140.050781 " fill-opacity="1" fill-rule="nonzero"/><path fill="#ffffff" d="M 186.585938 116.796875 L 185.441406 118.507812 L 199.738281 119.460938 L 198.148438 118.613281 L 196.023438 117.476562 L 196.121094 117.433594 L 186.585938 116.796875 " fill-opacity="1" fill-rule="nonzero"/><path fill="#ffffff" d="M 138.492188 67.332031 L 146.222656 60.304688 L 146.132812 57.976562 L 135.640625 67.515625 L 138.378906 67.339844 L 138.492188 67.332031 " fill-opacity="1" fill-rule="nonzero"/><path fill="#ffffff" d="M 53.3125 145.585938 L 48.589844 155.519531 L 47.855469 157.070312 L 50.960938 155.59375 L 59.339844 151.609375 L 63.601562 163.589844 L 67.859375 151.609375 L 79.34375 157.070312 L 73.886719 145.585938 L 85.867188 141.324219 L 80.597656 139.449219 L 73.886719 137.0625 L 73.953125 136.925781 L 79.34375 125.578125 L 67.859375 131.039062 L 63.601562 119.058594 L 59.339844 131.039062 L 47.855469 125.578125 L 53.3125 137.0625 L 41.332031 141.324219 L 53.3125 145.585938 " fill-opacity="1" fill-rule="nonzero"/><g clip-path="url(#faae78bb2a)"><path fill="#ffffff" d="M 109.53125 355.503906 L 113.808594 353.984375 L 117.351562 352.71875 L 105.371094 348.460938 L 105.371094 348.457031 L 105.566406 348.050781 L 106.976562 345.082031 L 110.832031 336.976562 L 99.347656 342.433594 L 95.085938 330.453125 L 90.824219 342.433594 L 90.296875 342.183594 L 87.757812 340.976562 L 79.339844 336.976562 L 84.796875 348.457031 L 84.796875 348.460938 L 72.816406 352.71875 L 84.796875 356.980469 L 79.339844 368.464844 L 90.824219 363.007812 L 95.085938 374.988281 L 99.347656 363.007812 L 110.828125 368.464844 L 105.371094 356.980469 L 109.53125 355.503906 " fill-opacity="1" fill-rule="nonzero"/></g><path fill="#ffffff" d="M 281.722656 22.140625 L 290.421875 21.28125 L 291.777344 21.148438 L 292.242188 21.699219 L 298.292969 28.867188 L 300.457031 18.996094 L 309.8125 15.179688 L 301.09375 10.078125 L 300.359375 0 L 292.808594 6.714844 L 282.996094 4.300781 L 287.046875 13.558594 L 283.761719 18.855469 L 281.722656 22.140625 " fill-opacity="1" fill-rule="nonzero"/><path fill="#ffffff" d="M 284.964844 191.292969 L 283.390625 181.714844 L 278.363281 187.070312 L 276.746094 188.792969 L 276.621094 188.773438 L 267.152344 187.328125 L 271.828125 195.835938 L 267.472656 204.507812 L 277.003906 202.691406 L 283.910156 209.511719 L 284.867188 201.914062 L 285.125 199.890625 L 285.125 199.882812 L 293.746094 195.425781 L 284.964844 191.292969 " fill-opacity="1" fill-rule="nonzero"/><path fill="#ffffff" d="M 206.515625 355.066406 L 195.851562 353.519531 L 191.082031 343.855469 L 186.316406 353.519531 L 175.652344 355.066406 L 178.632812 357.972656 L 180.585938 359.875 L 183.371094 362.589844 L 181.546875 373.207031 L 191.082031 368.191406 L 200.621094 373.207031 L 198.796875 362.589844 L 206.515625 355.066406 " fill-opacity="1" fill-rule="nonzero"/><path fill="#ffffff" d="M 341.851562 132.839844 L 337.199219 131.441406 L 335.210938 130.84375 L 333.324219 130.277344 L 330.601562 121.804688 L 325.53125 129.121094 L 316.628906 129.09375 L 321.476562 135.460938 L 322.023438 136.175781 L 321.65625 137.285156 L 319.242188 144.632812 L 327.644531 141.695312 L 334.832031 146.949219 L 334.632812 138.050781 L 341.851562 132.839844 " fill-opacity="1" fill-rule="nonzero"/><path fill="#ffffff" d="M 174.867188 304.746094 L 166.664062 305.277344 L 161.574219 298.820312 L 159.542969 306.785156 L 151.832031 309.632812 L 157.953125 313.5 L 158.78125 314.023438 L 158.820312 315.054688 L 159.101562 322.238281 L 165.425781 316.984375 L 173.339844 319.222656 L 170.300781 311.582031 L 174.867188 304.746094 " fill-opacity="1" fill-rule="nonzero"/><path fill="#ffffff" d="M 15.1875 206.15625 L 13.046875 200.777344 L 16.265625 195.964844 L 14.90625 196.050781 L 12.484375 196.207031 L 10.484375 196.335938 L 6.902344 191.789062 L 5.472656 197.398438 L 0.0390625 199.402344 L 4.933594 202.496094 L 5.160156 208.28125 L 9.613281 204.585938 L 10.285156 204.773438 L 12.84375 205.496094 L 15.1875 206.15625 " fill-opacity="1" fill-rule="nonzero"/><path fill="#ffffff" d="M 21.507812 185.128906 L 21.613281 187.820312 L 21.652344 188.792969 L 26.105469 185.09375 L 31.679688 186.667969 L 29.539062 181.285156 L 32.757812 176.472656 L 31.414062 176.558594 L 28.824219 176.726562 L 26.976562 176.847656 L 23.394531 172.296875 L 21.964844 177.910156 L 16.53125 179.910156 L 21.425781 183.007812 L 21.507812 185.128906 " fill-opacity="1" fill-rule="nonzero"/><path fill="#ffffff" d="M 146.167969 141.613281 L 142.585938 137.066406 L 141.15625 142.675781 L 137.714844 143.945312 L 135.722656 144.679688 L 137.332031 145.699219 L 140.617188 147.773438 L 140.84375 153.558594 L 145.296875 149.859375 L 149.699219 151.101562 L 150.871094 151.433594 L 149.808594 148.769531 L 148.730469 146.054688 L 151.949219 141.238281 L 150.679688 141.320312 L 148.011719 141.496094 L 146.167969 141.613281 " fill-opacity="1" fill-rule="nonzero"/><path fill="#ffffff" d="M 122.230469 71.96875 L 127.125 75.058594 L 127.351562 80.84375 L 131.804688 77.148438 L 135.21875 78.109375 L 137.378906 78.71875 L 136.742188 77.128906 L 135.238281 73.339844 L 138.453125 68.527344 L 137.082031 68.613281 L 134.230469 68.800781 L 132.675781 68.902344 L 129.09375 64.351562 L 127.660156 69.960938 L 127.351562 70.074219 L 125.007812 70.941406 L 122.230469 71.96875 " fill-opacity="1" fill-rule="nonzero"/><path fill="#ffffff" d="M 102.578125 62.96875 L 107.472656 66.066406 L 107.699219 71.851562 L 112.152344 68.152344 L 117.726562 69.726562 L 116.789062 67.371094 L 115.859375 65.035156 L 115.585938 64.34375 L 118.804688 59.53125 L 113.023438 59.90625 L 109.441406 55.355469 L 108.011719 60.964844 L 107.152344 61.285156 L 104.707031 62.183594 L 102.578125 62.96875 " fill-opacity="1" fill-rule="nonzero"/><path fill="#ffffff" d="M 77.875 59.855469 L 82.328125 56.15625 L 87.902344 57.730469 L 86.625 54.523438 L 85.761719 52.347656 L 85.828125 52.246094 L 88.980469 47.535156 L 83.199219 47.910156 L 79.617188 43.363281 L 78.1875 48.972656 L 72.753906 50.976562 L 77.648438 54.070312 L 77.875 59.855469 " fill-opacity="1" fill-rule="nonzero"/><path fill="#ffffff" d="M 147.28125 56.933594 L 147.371094 59.261719 L 147.507812 62.699219 L 151.960938 59 L 157.535156 60.574219 L 155.394531 55.195312 L 158.609375 50.378906 L 152.832031 50.753906 L 149.25 46.207031 L 147.820312 51.816406 L 142.386719 53.820312 L 147.28125 56.914062 L 147.28125 56.933594 " fill-opacity="1" fill-rule="nonzero"/><path fill="#ffffff" d="M 174.96875 163.089844 L 172.621094 163.242188 L 170.90625 163.351562 L 167.324219 158.804688 L 166.027344 163.886719 L 165.894531 164.414062 L 164.527344 164.921875 L 160.460938 166.417969 L 165.355469 169.511719 L 165.582031 175.300781 L 170.035156 171.601562 L 175.609375 173.171875 L 173.46875 167.792969 L 176.6875 162.980469 L 174.96875 163.089844 " fill-opacity="1" fill-rule="nonzero"/><path fill="#ffffff" d="M 214.636719 112.949219 L 214.105469 113.023438 L 208.902344 113.742188 L 204.996094 109.46875 L 203.980469 115.171875 L 198.707031 117.566406 L 198.796875 117.613281 L 202.617188 119.652344 L 203.816406 120.292969 L 203.992188 121.886719 L 204.277344 124.402344 L 204.460938 126.046875 L 208.636719 122.03125 L 214.308594 123.195312 L 211.78125 117.984375 L 212.835938 116.125 L 214.636719 112.949219 " fill-opacity="1" fill-rule="nonzero"/><g clip-path="url(#98b5af9247)"><path fill="#ffffff" d="M 371.925781 100.847656 L 373.71875 95.339844 L 368.257812 97.265625 L 363.574219 93.859375 L 363.71875 99.648438 L 359.035156 103.050781 L 364.0625 104.546875 L 364.582031 104.703125 L 365.027344 106.078125 L 366.367188 110.210938 L 369.652344 105.441406 L 375.445312 105.441406 L 371.925781 100.847656 " fill-opacity="1" fill-rule="nonzero"/></g><path fill="#ffffff" d="M 280.472656 131.785156 L 280.355469 131.351562 L 281.40625 130.109375 L 284.105469 126.9375 L 278.324219 126.644531 L 275.285156 121.714844 L 274.214844 124.515625 L 273.359375 126.757812 L 273.21875 127.125 L 267.59375 128.492188 L 272.097656 132.125 L 271.660156 137.898438 L 275.394531 135.464844 L 276.511719 134.738281 L 277.164062 135.007812 L 281.863281 136.941406 L 280.472656 131.785156 " fill-opacity="1" fill-rule="nonzero"/><path fill="#ffffff" d="M 317.378906 218.746094 L 319.664062 215.328125 L 312.8125 215.769531 L 308.566406 210.378906 L 307.128906 216.027344 L 306.875 217.027344 L 305.945312 217.371094 L 300.433594 219.402344 L 306.234375 223.070312 L 306.503906 229.929688 L 311.78125 225.542969 L 318.390625 227.410156 L 315.851562 221.03125 L 317.378906 218.746094 " fill-opacity="1" fill-rule="nonzero"/><path fill="#ffffff" d="M 260.253906 92.25 L 258.109375 86.871094 L 261.328125 82.054688 L 256.632812 82.359375 L 255.550781 82.429688 L 254.960938 81.683594 L 251.96875 77.882812 L 250.539062 83.492188 L 245.105469 85.496094 L 249.046875 87.988281 L 250 88.589844 L 250.035156 89.472656 L 250.226562 94.375 L 254.679688 90.675781 L 255.046875 90.78125 L 257.382812 91.441406 L 260.253906 92.25 " fill-opacity="1" fill-rule="nonzero"/><path fill="#ffffff" d="M 166.910156 122.226562 L 168.222656 123.054688 L 168.234375 123.421875 L 168.636719 133.652344 L 176.796875 126.878906 L 187.003906 129.757812 L 183.078125 119.902344 L 184.074219 118.417969 L 185.21875 116.707031 L 188.972656 111.085938 L 178.390625 111.773438 L 171.828125 103.441406 L 169.738281 111.628906 L 169.222656 113.664062 L 169.207031 113.71875 L 159.257812 117.386719 L 166.910156 122.226562 " fill-opacity="1" fill-rule="nonzero"/></svg>