<svg id="Layer_1" data-name="Layer 1" xmlns="http://www.w3.org/2000/svg" viewBox="0 0 617.31 588.5"><defs><style>.cls-1{fill:#e5f3ec;}.cls-2{fill:none;stroke:#414142;stroke-linecap:round;stroke-linejoin:round;stroke-width:3px;}</style></defs><circle class="cls-1" cx="307.12" cy="296.72" r="286.7"/><path class="cls-2" d="M329.13,235.24c34.22,13.59,28.53,32.22,6.5,88.92s-49.19,50.75-49.19,50.75l-.19-.06s-25.84-10.25-12.4-69.58S293,227.32,329,235.19"/><path class="cls-2" d="M282.7,269.42s23.92,37.92,65.63,20.06"/><path class="cls-2" d="M275.91,295.33s23.16,36.74,63.57,19.43"/><path class="cls-2" d="M271.45,317.13s21.7,34.41,59.54,18.2"/><polyline class="cls-2" points="352.37 276.33 367.49 275.66 384.57 265.02"/><polyline class="cls-2" points="342.07 307.33 360.93 313.09 384.73 305.74"/><polyline class="cls-2" points="332.71 331.24 356.83 341.14 369.71 364.19"/><polyline class="cls-2" points="317.96 356.89 337.43 372.22 339.42 392.76"/><path class="cls-2" d="M270.33,341.4s17.5,27.75,48,14.68"/><path class="cls-2" d="M406.46,262s-20.16,11.64-30-9.17,22.75-54.56,31.93-59.44l-7.82,36.17,15.22-33.91C416.26,197,428.09,250.19,406.46,262Z"/><polyline class="cls-2" points="286.18 256.33 274.02 247.33 265.81 228.96"/><polyline class="cls-2" points="277.39 287.79 258.53 282.03 242.91 262.63"/><polyline class="cls-2" points="271.78 312.86 246.25 307.57 222.68 319.49"/><polyline class="cls-2" points="269.67 342.37 244.96 344.19 231.82 360.1"/><path class="cls-2" d="M249.34,214.22s10.2,20.92,30,9.16,11.65-57.95,6.77-67.13l-13.74,34.36L278.68,154C277.54,154.87,238,192.32,249.34,214.22Z"/><path class="cls-2" d="M232.23,429.94s6.36-4.52,2.36-12.85S218.2,410.5,209.91,405c0,0,3.57,27.44,22.32,25"/><path class="cls-2" d="M276,364.19s-2.65,15-.07,20.86a21.37,21.37,0,0,0,13.29,4.38s4.6-1.43,11.15-15.9"/><path class="cls-2" d="M275.91,385.05s-5,11.2-4.13,15.59c0,0,5.41,5.08,10.92,5.22,0,0,5-5.71,6.5-16.43"/><path class="cls-2" d="M271.78,400.64a78.79,78.79,0,0,0-3.33,10.49s4.16,4.17,7.67,3.83a88.33,88.33,0,0,0,6.58-9.1"/><path class="cls-2" d="M268.45,411.13s-2.84,4.83-4.84,9.17l6.06,4a29.33,29.33,0,0,0,6.45-9.34"/><path class="cls-2" d="M263.61,420.3s-4.5,5.33-6.16,7l3.83,5.33a17.48,17.48,0,0,0,8.39-8.33"/><path class="cls-2" d="M257.45,427.3s-4.41,4.83-6.71,5.33l2,5.5s6.5-2.5,8.5-5.5"/><path class="cls-2" d="M250.74,432.63s-6.16,1.29-9.8-.83l-.83,6.33s6.93,3,12.67,0"/><line class="cls-2" x1="240.94" y1="431.8" x2="237.44" y2="429.47"/><path class="cls-2" d="M240.11,438.13a46.46,46.46,0,0,1-8.29-6.33"/></svg>