<svg xmlns="http://www.w3.org/2000/svg" xmlns:xlink="http://www.w3.org/1999/xlink" width="500" zoomAndPan="magnify" viewBox="0 0 375 374.999991" height="500" preserveAspectRatio="xMidYMid meet" version="1.0"><defs><clipPath id="5cfa6d8a5f"><path d="M 316 26.015625 L 343 26.015625 L 343 54 L 316 54 Z M 316 26.015625 " clip-rule="nonzero"/></clipPath><clipPath id="9856053780"><path d="M 20.332031 313 L 56.394531 313 L 56.394531 348.976562 L 20.332031 348.976562 Z M 20.332031 313 " clip-rule="nonzero"/></clipPath><clipPath id="60aeb21231"><path d="M 324.59375 66 L 374.949219 66 L 374.949219 116.488281 L 324.59375 116.488281 Z M 324.59375 66 " clip-rule="nonzero"/></clipPath></defs><path fill="#ffffff" d="M 332.980469 47.851562 L 332.253906 48.582031 L 344.230469 77.738281 L 344.386719 77.8125 L 345.277344 75.304688 L 334.105469 48.058594 L 332.980469 47.851562 " fill-opacity="1" fill-rule="nonzero"/><path fill="#ffffff" d="M 355.691406 126.726562 L 357.003906 128.707031 L 354.242188 107.792969 L 352.835938 111.75 L 355.054688 128.566406 L 355.691406 126.726562 " fill-opacity="1" fill-rule="nonzero"/><path fill="#ffffff" d="M 356.816406 147.167969 L 358.035156 172.210938 L 358.144531 171.988281 L 359.292969 169.667969 L 359.890625 170.882812 L 358.695312 146.398438 L 358.1875 146.207031 L 356.816406 147.167969 " fill-opacity="1" fill-rule="nonzero"/><path fill="#ffffff" d="M 145.015625 326.890625 L 110.757812 335.3125 L 108.050781 337.949219 L 147.035156 328.363281 L 147.023438 328.113281 L 145.015625 326.890625 " fill-opacity="1" fill-rule="nonzero"/><path fill="#ffffff" d="M 26.613281 317.929688 L 14.109375 298.390625 L 10.683594 296.589844 L 28.734375 324.792969 L 26.613281 317.929688 " fill-opacity="1" fill-rule="nonzero"/><path fill="#ffffff" d="M 105.71875 338.441406 L 108.308594 335.917969 L 110.574219 333.707031 L 109.722656 333.585938 L 103.867188 332.734375 L 100.863281 326.652344 L 97.863281 332.734375 L 91.152344 333.707031 L 95.144531 337.597656 L 96.007812 338.441406 L 95.816406 339.5625 L 94.863281 345.125 L 100.863281 341.96875 L 106.867188 345.125 L 105.734375 338.519531 L 105.71875 338.441406 " fill-opacity="1" fill-rule="nonzero"/><path fill="#ffffff" d="M 336.578125 96.660156 L 335.222656 96.175781 L 289.992188 110.136719 L 291.230469 110.316406 L 289.378906 112.121094 L 289.066406 112.425781 L 335.964844 97.953125 L 336.578125 96.660156 " fill-opacity="1" fill-rule="nonzero"/><path fill="#ffffff" d="M 259.238281 120.136719 L 262.21875 120.570312 L 263.453125 120.75 L 272.308594 117.796875 L 272.550781 116.386719 L 272.027344 115.875 L 259.238281 120.136719 " fill-opacity="1" fill-rule="nonzero"/><path fill="#ffffff" d="M 224.277344 154.695312 L 224.632812 154.75 L 232.558594 143.421875 L 232.816406 141.929688 L 233.320312 139 L 223.472656 153.066406 L 224.277344 154.695312 " fill-opacity="1" fill-rule="nonzero"/><path fill="#ffffff" d="M 56.230469 334.933594 L 49.085938 336.363281 L 94.535156 339.472656 L 94.636719 338.886719 L 93.179688 337.464844 L 56.230469 334.933594 " fill-opacity="1" fill-rule="nonzero"/><path fill="#ffffff" d="M 171.074219 261.734375 L 171.144531 261.917969 L 172.242188 240.65625 L 170.621094 235.082031 L 169.3125 260.679688 L 170.140625 259.324219 L 171.074219 261.734375 " fill-opacity="1" fill-rule="nonzero"/><path fill="#ffffff" d="M 22.917969 262.113281 L 20.6875 262.324219 L 11.804688 280.609375 L 12.878906 282.777344 L 22.917969 262.113281 " fill-opacity="1" fill-rule="nonzero"/><path fill="#ffffff" d="M 167.089844 279.421875 L 156.15625 314.648438 L 157.414062 316.191406 L 157.683594 316.167969 L 169.089844 279.34375 L 168.375 278.882812 L 167.089844 279.421875 " fill-opacity="1" fill-rule="nonzero"/><path fill="#ffffff" d="M 213.171875 168.039062 L 213.320312 167.160156 L 179.503906 212.457031 L 179.617188 212.839844 L 182.472656 211.683594 L 213.421875 170.222656 L 212.734375 170.585938 L 213.171875 168.039062 " fill-opacity="1" fill-rule="nonzero"/><path fill="#ffffff" d="M 57.992188 240.125 L 58.382812 237.847656 L 58.265625 237.730469 L 32.574219 253.039062 L 34.449219 254.148438 L 57.992188 240.125 " fill-opacity="1" fill-rule="nonzero"/><path fill="#ffffff" d="M 178.917969 270.09375 L 172.324219 268.519531 L 170.980469 265.042969 L 169.882812 262.195312 L 169.175781 263.351562 L 166.347656 267.980469 L 159.578125 268.347656 L 163.988281 273.5 L 162.246094 280.050781 L 167.582031 277.832031 L 168.507812 277.449219 L 169.480469 278.078125 L 174.199219 281.128906 L 173.660156 274.371094 L 178.917969 270.09375 " fill-opacity="1" fill-rule="nonzero"/><path fill="#ffffff" d="M 165.945312 316.773438 L 157.273438 317.480469 L 156.847656 317.515625 L 155.703125 316.113281 L 151.082031 310.441406 L 148.972656 319.324219 L 140.464844 322.625 L 146.765625 326.460938 L 148.257812 327.371094 L 148.296875 328.054688 L 148.769531 336.484375 L 155.691406 330.535156 L 164.515625 332.867188 L 161 324.445312 L 165.945312 316.773438 " fill-opacity="1" fill-rule="nonzero"/><path fill="#ffffff" d="M 15.761719 297.816406 L 14.613281 291.132812 L 19.46875 286.402344 L 12.761719 285.425781 L 12.171875 284.230469 L 11.101562 282.0625 L 9.757812 279.34375 L 6.757812 285.425781 L 0.046875 286.402344 L 4.90625 291.132812 L 3.757812 297.816406 L 9.527344 294.78125 L 9.757812 294.660156 L 12.71875 296.21875 L 15.761719 297.816406 " fill-opacity="1" fill-rule="nonzero"/><path fill="#ffffff" d="M 21.339844 260.980469 L 23.570312 260.765625 L 24.226562 260.707031 L 28.578125 265.902344 L 30.054688 259.285156 L 36.34375 256.75 L 33.203125 254.894531 L 31.324219 253.785156 L 30.507812 253.300781 L 30.039062 246.539062 L 24.953125 251.023438 L 18.378906 249.378906 L 21.074219 255.597656 L 17.476562 261.347656 L 21.339844 260.980469 " fill-opacity="1" fill-rule="nonzero"/><path fill="#ffffff" d="M 59.753906 237.402344 L 59.4375 239.265625 L 58.609375 244.082031 L 64.613281 240.929688 L 70.613281 244.082031 L 69.464844 237.402344 L 74.320312 232.667969 L 67.613281 231.691406 L 64.613281 225.613281 L 61.609375 231.691406 L 54.902344 232.667969 L 59.402344 237.054688 L 59.753906 237.402344 " fill-opacity="1" fill-rule="nonzero"/><path fill="#ffffff" d="M 281.777344 110.234375 L 278.777344 104.152344 L 275.777344 110.234375 L 269.066406 111.210938 L 271.460938 113.546875 L 273.386719 115.421875 L 273.921875 115.941406 L 273.679688 117.339844 L 272.777344 122.625 L 278.777344 119.46875 L 284.777344 122.625 L 283.632812 115.941406 L 286.390625 113.253906 L 288.488281 111.210938 L 287.152344 111.015625 L 281.777344 110.234375 " fill-opacity="1" fill-rule="nonzero"/><path fill="#ffffff" d="M 223.8125 155.917969 L 223.433594 155.863281 L 222.636719 154.257812 L 220.429688 149.78125 L 217.429688 155.863281 L 210.71875 156.839844 L 215.574219 161.570312 L 215.003906 164.90625 L 214.429688 168.253906 L 215.195312 167.851562 L 220.429688 165.097656 L 226.433594 168.253906 L 225.285156 161.570312 L 230.140625 156.839844 L 223.8125 155.917969 " fill-opacity="1" fill-rule="nonzero"/><path fill="#ffffff" d="M 359.804688 135.238281 L 357.386719 131.589844 L 356.058594 129.585938 L 355.433594 131.40625 L 353.851562 136 L 347.320312 137.816406 L 352.738281 141.894531 L 352.449219 148.671875 L 356.746094 145.660156 L 358.003906 144.777344 L 358.628906 145.011719 L 364.355469 147.144531 L 362.367188 140.664062 L 366.585938 135.351562 L 359.804688 135.238281 " fill-opacity="1" fill-rule="nonzero"/><path fill="#ffffff" d="M 363.019531 180.109375 L 360.046875 174.082031 L 359.292969 172.550781 L 358.164062 174.832031 L 355.558594 180.109375 L 347.21875 181.324219 L 353.253906 187.207031 L 351.832031 195.515625 L 359.292969 191.589844 L 366.75 195.515625 L 365.328125 187.207031 L 371.359375 181.324219 L 363.019531 180.109375 " fill-opacity="1" fill-rule="nonzero"/><g clip-path="url(#5cfa6d8a5f)"><path fill="#ffffff" d="M 325.851562 53.203125 L 331.730469 47.300781 L 332.550781 46.476562 L 333.53125 46.65625 L 341.886719 48.179688 L 337.5625 39.730469 L 342.066406 31.378906 L 332.691406 32.882812 L 326.140625 26.015625 L 324.675781 35.394531 L 316.121094 39.503906 L 324.585938 43.796875 L 325.851562 53.203125 " fill-opacity="1" fill-rule="nonzero"/></g><path fill="#ffffff" d="M 259.785156 121.972656 L 255.570312 121.359375 L 250.25 120.585938 L 245.007812 109.96875 L 239.769531 120.585938 L 228.050781 122.289062 L 236.53125 130.554688 L 235.65625 135.660156 L 234.894531 140.085938 L 234.527344 142.226562 L 245.007812 136.714844 L 255.488281 142.226562 L 253.488281 130.554688 L 261.964844 122.289062 L 259.785156 121.972656 " fill-opacity="1" fill-rule="nonzero"/><path fill="#ffffff" d="M 183.445312 219.800781 L 188.492188 210.621094 L 181 213.65625 L 178.785156 214.554688 L 178.546875 213.738281 L 175.863281 204.496094 L 171.777344 214.140625 L 162.601562 209.09375 L 166.53125 218.800781 L 156.476562 221.722656 L 166.121094 225.808594 L 161.074219 234.984375 L 170.78125 231.054688 L 170.820312 231.191406 L 171.4375 233.316406 L 172.441406 236.773438 L 173.703125 241.109375 L 177.785156 231.46875 L 186.964844 236.511719 L 183.03125 226.804688 L 193.089844 223.882812 L 183.445312 219.800781 " fill-opacity="1" fill-rule="nonzero"/><g clip-path="url(#9856053780)"><path fill="#ffffff" d="M 46.164062 335.648438 L 51.382812 334.601562 L 56.332031 333.609375 L 47.160156 328.769531 L 52.914062 320.136719 L 43.003906 323.199219 L 40.964844 313.03125 L 36.125 322.203125 L 27.492188 316.449219 L 29.195312 321.964844 L 30.554688 326.359375 L 29.832031 326.507812 L 20.386719 328.398438 L 29.558594 333.238281 L 23.804688 341.871094 L 33.714844 338.808594 L 35.753906 348.976562 L 40.59375 339.804688 L 49.226562 345.558594 L 46.328125 336.175781 L 46.164062 335.648438 " fill-opacity="1" fill-rule="nonzero"/></g><g clip-path="url(#60aeb21231)"><path fill="#ffffff" d="M 352.46875 108.976562 L 353.875 105.015625 L 354.695312 102.707031 L 367.613281 108.84375 L 361.472656 95.929688 L 374.949219 91.136719 L 361.472656 86.347656 L 367.613281 73.433594 L 354.695312 79.570312 L 349.90625 66.097656 L 346.003906 77.074219 L 345.113281 79.570312 L 344.949219 79.496094 L 332.199219 73.433594 L 338.335938 86.347656 L 324.867188 91.136719 L 337.265625 95.546875 L 338.335938 95.929688 L 337.621094 97.441406 L 332.199219 108.84375 L 345.113281 102.707031 L 349.90625 116.179688 L 352.46875 108.976562 " fill-opacity="1" fill-rule="nonzero"/></g></svg>