<svg xmlns="http://www.w3.org/2000/svg" xmlns:xlink="http://www.w3.org/1999/xlink" width="500" zoomAndPan="magnify" viewBox="0 0 375 374.999991" height="500" preserveAspectRatio="xMidYMid meet" version="1.0"><defs><clipPath id="69b76f9306"><path d="M 47 34.453125 L 87 34.453125 L 87 74 L 47 74 Z M 47 34.453125 " clip-rule="nonzero"/></clipPath><clipPath id="59f7fd0574"><path d="M 347.042969 314.171875 L 374.90625 314.171875 L 374.90625 340.453125 L 347.042969 340.453125 Z M 347.042969 314.171875 " clip-rule="nonzero"/></clipPath></defs><path fill="#ffffff" d="M 179.507812 210.714844 L 193.347656 208.738281 L 193.488281 207.914062 L 192.675781 207.121094 L 181.566406 208.710938 L 179.507812 210.714844 " fill-opacity="1" fill-rule="nonzero"/><path fill="#ffffff" d="M 147.367188 142.867188 L 147.25 144.414062 L 166.789062 177.496094 L 167.683594 175.6875 L 148.390625 143.050781 L 147.367188 142.867188 " fill-opacity="1" fill-rule="nonzero"/><path fill="#ffffff" d="M 167.433594 178.589844 L 159.769531 179.703125 L 165.375 185.164062 L 164.050781 192.878906 L 170.625 189.425781 L 170.980469 189.238281 L 172.316406 189.941406 L 177.910156 192.878906 L 176.585938 185.164062 L 182.191406 179.703125 L 174.445312 178.578125 L 170.980469 171.558594 L 168.371094 176.847656 L 167.515625 178.578125 L 167.433594 178.589844 " fill-opacity="1" fill-rule="nonzero"/><path fill="#ffffff" d="M 237.730469 265.976562 L 236.585938 263.144531 L 204.847656 239.828125 L 205.261719 242.234375 L 237.621094 266.007812 L 237.730469 265.976562 " fill-opacity="1" fill-rule="nonzero"/><path fill="#ffffff" d="M 74.402344 63.628906 L 135.007812 128.589844 L 136.496094 128.855469 L 136.574219 127.8125 L 77.273438 64.222656 L 74.402344 63.628906 " fill-opacity="1" fill-rule="nonzero"/><path fill="#ffffff" d="M 353.007812 313.199219 L 356.753906 320.390625 L 357.683594 318.507812 L 355.636719 314.582031 L 354.574219 314.023438 L 353.007812 313.199219 " fill-opacity="1" fill-rule="nonzero"/><path fill="#ffffff" d="M 258.507812 274.046875 L 255.921875 274.800781 L 255.972656 274.929688 L 341.453125 304.429688 L 340.058594 303.070312 L 341.910156 302.800781 L 258.507812 274.046875 " fill-opacity="1" fill-rule="nonzero"/><path fill="#ffffff" d="M 197.101562 212.417969 L 197.632812 228.890625 L 198.371094 227.394531 L 199.222656 225.664062 L 198.773438 211.71875 L 198.601562 211.628906 L 197.101562 212.417969 " fill-opacity="1" fill-rule="nonzero"/><path fill="#ffffff" d="M 172.316406 191.214844 L 170.980469 190.515625 L 170.625 190.703125 L 170.625 200.796875 L 171.867188 198.28125 L 172.316406 197.363281 L 172.316406 191.214844 " fill-opacity="1" fill-rule="nonzero"/><path fill="#ffffff" d="M 179.1875 235.882812 L 177.460938 237.5625 L 177.46875 237.605469 L 193.820312 237.3125 L 192.113281 235.648438 L 179.1875 235.882812 " fill-opacity="1" fill-rule="nonzero"/><path fill="#ffffff" d="M 163.332031 233.75 L 152.414062 230.515625 L 152.179688 230.804688 L 152.628906 232.320312 L 165.925781 236.28125 L 163.765625 234.175781 L 163.332031 233.75 " fill-opacity="1" fill-rule="nonzero"/><path fill="#ffffff" d="M 21.480469 149.96875 L 21.988281 152.058594 L 138.132812 225.671875 L 140.355469 225.078125 L 21.78125 149.925781 L 21.480469 149.96875 " fill-opacity="1" fill-rule="nonzero"/><path fill="#ffffff" d="M 203.539062 238.867188 L 203.28125 237.359375 L 207.175781 233.558594 L 201.789062 232.777344 L 199.382812 227.894531 L 199.300781 228.058594 L 197.707031 231.285156 L 196.972656 232.777344 L 191.585938 233.558594 L 193.699219 235.621094 L 195.40625 237.285156 L 195.484375 237.359375 L 194.5625 242.722656 L 199.382812 240.191406 L 204.199219 242.722656 L 203.949219 241.269531 L 203.539062 238.867188 " fill-opacity="1" fill-rule="nonzero"/><path fill="#ffffff" d="M 194.703125 207.523438 L 194.523438 208.570312 L 193.78125 212.886719 L 197.058594 211.164062 L 198.601562 210.355469 L 198.730469 210.421875 L 203.417969 212.886719 L 202.5 207.523438 L 206.398438 203.722656 L 201.007812 202.941406 L 198.601562 198.058594 L 196.191406 202.941406 L 190.804688 203.722656 L 194.085938 206.921875 L 194.703125 207.523438 " fill-opacity="1" fill-rule="nonzero"/><path fill="#ffffff" d="M 350.277344 310.488281 L 352.089844 311.441406 L 354.71875 312.824219 L 355.097656 313.023438 L 354.175781 307.65625 L 358.074219 303.859375 L 352.6875 303.074219 L 350.277344 298.195312 L 347.871094 303.074219 L 344.234375 303.601562 L 342.480469 303.859375 L 343.957031 305.296875 L 346.378906 307.65625 L 345.460938 313.023438 L 350.277344 310.488281 " fill-opacity="1" fill-rule="nonzero"/><path fill="#ffffff" d="M 172.878906 198.78125 L 172.316406 199.914062 L 170.625 203.347656 L 169.824219 204.96875 L 162.992188 205.960938 L 167.933594 210.78125 L 166.765625 217.585938 L 172.878906 214.375 L 178.988281 217.585938 L 177.851562 210.953125 L 177.820312 210.78125 L 179.667969 208.980469 L 182.765625 205.960938 L 175.933594 204.96875 L 172.878906 198.78125 " fill-opacity="1" fill-rule="nonzero"/><g clip-path="url(#69b76f9306)"><path fill="#ffffff" d="M 58.535156 59.921875 L 56.203125 71.164062 L 65.109375 63.917969 L 71.40625 73.519531 L 72.585938 62.097656 L 73.070312 62.199219 L 75.9375 62.792969 L 83.824219 64.433594 L 76.582031 55.527344 L 86.179688 49.226562 L 74.761719 48.050781 L 77.09375 36.808594 L 68.1875 44.050781 L 61.890625 34.453125 L 60.710938 45.871094 L 49.472656 43.539062 L 56.714844 52.449219 L 47.117188 58.746094 L 58.535156 59.921875 " fill-opacity="1" fill-rule="nonzero"/></g><path fill="#ffffff" d="M 20.089844 149.019531 L 20.304688 148.988281 L 28.214844 147.910156 L 21.210938 143.640625 L 26.171875 137.109375 L 18.203125 139.042969 L 17.09375 130.914062 L 12.824219 137.917969 L 6.296875 132.957031 L 8.226562 140.925781 L 0.101562 142.035156 L 7.101562 146.304688 L 2.140625 152.835938 L 10.113281 150.902344 L 11.222656 159.027344 L 15.492188 152.027344 L 22.019531 156.988281 L 20.617188 151.191406 L 20.089844 149.019531 " fill-opacity="1" fill-rule="nonzero"/><path fill="#ffffff" d="M 129.457031 128.746094 L 134.808594 134.960938 L 128.082031 139.652344 L 136.257812 140.261719 L 134.816406 148.335938 L 141.03125 142.984375 L 145.722656 149.710938 L 146.242188 142.710938 L 146.332031 141.535156 L 147.632812 141.765625 L 154.40625 142.976562 L 149.054688 136.761719 L 155.78125 132.074219 L 147.605469 131.460938 L 149.046875 123.386719 L 142.832031 128.738281 L 138.140625 122.011719 L 137.625 128.9375 L 137.53125 130.1875 L 136.292969 129.96875 L 129.457031 128.746094 " fill-opacity="1" fill-rule="nonzero"/><path fill="#ffffff" d="M 254.402344 274.0625 L 256.65625 273.410156 L 263.640625 271.378906 L 254.785156 267.628906 L 259.417969 259.199219 L 250.5 262.808594 L 247.816406 253.570312 L 244.066406 262.429688 L 235.636719 257.792969 L 238.316406 264.417969 L 239.246094 266.710938 L 238.765625 266.851562 L 230.007812 269.394531 L 238.867188 273.148438 L 234.230469 281.578125 L 243.148438 277.96875 L 245.832031 287.207031 L 249.585938 278.347656 L 258.015625 282.980469 L 254.554688 274.441406 L 254.402344 274.0625 " fill-opacity="1" fill-rule="nonzero"/><g clip-path="url(#59f7fd0574)"><path fill="#ffffff" d="M 374.90625 324.257812 L 365.34375 322.871094 L 361.066406 314.203125 L 358.332031 319.75 L 357.402344 321.628906 L 356.789062 322.871094 L 347.226562 324.257812 L 354.144531 331.007812 L 352.511719 340.53125 L 361.066406 336.035156 L 369.621094 340.53125 L 367.984375 331.007812 L 374.90625 324.257812 " fill-opacity="1" fill-rule="nonzero"/></g><path fill="#ffffff" d="M 150.929688 230.554688 L 151.242188 230.167969 L 155.273438 225.191406 L 148.371094 225.007812 L 144.609375 219.21875 L 142.304688 225.722656 L 141.652344 225.898438 L 139.425781 226.496094 L 135.636719 227.511719 L 141.109375 231.714844 L 140.75 238.609375 L 146.441406 234.703125 L 152.886719 237.175781 L 151.335938 231.9375 L 150.929688 230.554688 " fill-opacity="1" fill-rule="nonzero"/><path fill="#ffffff" d="M 176.25 237.167969 L 177.539062 235.910156 L 180.148438 233.367188 L 174.761719 232.585938 L 172.351562 227.703125 L 169.941406 232.585938 L 164.554688 233.367188 L 165.65625 234.4375 L 168.253906 236.972656 L 168.453125 237.167969 L 167.53125 242.53125 L 172.351562 240 L 177.167969 242.53125 L 176.328125 237.625 L 176.25 237.167969 " fill-opacity="1" fill-rule="nonzero"/></svg>