<svg id="Layer_1" data-name="Layer 1" xmlns="http://www.w3.org/2000/svg" viewBox="0 0 617.31 588.5"><defs><style>.cls-1{fill:#d9ecd3;}.cls-2{fill:none;stroke:#414142;stroke-linecap:round;stroke-linejoin:round;stroke-width:3px;}</style></defs><circle class="cls-1" cx="307.78" cy="296.62" r="279.56"/><path class="cls-2" d="M357.5,261.89s-4.23,21.69,14.28,25.39,35.39-16.95,41.25-25.39c5.58-8,15.59-25.51,33.35-39.66,0,0,11.85-9,33.53-10.2a76.46,76.46,0,0,0-36.83-3c-19.82,3.5-39.53,25.23-44.07,30.54C392.72,246.91,375.82,260.84,357.5,261.89Z"/><path class="cls-2" d="M260.55,260.66s15.93-8,47.15,0c0,0,24.77-9.24,49,0"/><path class="cls-2" d="M258.07,260.45s4.23,21.69-14.28,25.39-35.4-17-41.26-25.39c-5.57-8-15.58-25.51-33.35-39.67,0,0-11.85-9-33.53-10.19a76.49,76.49,0,0,1,36.84-3c19.82,3.5,39.52,25.23,44.06,30.54C222.85,245.47,239.74,259.4,258.07,260.45Z"/><path class="cls-2" d="M251.39,287.72s5.23,37.43,19.87,51,12.84,20.72,12.84,20.72l.07,12.78s22.05,31.67,48.66,1.45l.07-11.05s-1.8-7.17,12.84-20.72,19.87-51,19.87-51"/><path class="cls-2" d="M294.15,365.14s5,2.83,5,6.36"/><path class="cls-2" d="M322.91,365.14s-5,2.83-5,6.36"/><path class="cls-2" d="M365.61,285s25-1.38,44.1-33.61S457.94,208,479.91,212"/><path class="cls-2" d="M250.54,283.27s-25-1.38-44.11-33.61-48.23-43.33-70.2-39.34"/></svg>