<svg id="Layer_1" data-name="Layer 1" xmlns="http://www.w3.org/2000/svg" viewBox="0 0 617.31 588.5"><defs><style>.cls-1{fill:#d9ecd3;}.cls-2{fill:none;stroke:#414142;stroke-linecap:round;stroke-linejoin:round;stroke-width:3px;}</style></defs><circle class="cls-1" cx="308.66" cy="298.54" r="284.01"/><path class="cls-2" d="M356.12,326c-16.17-3.51-11.89-18.94-11.89-18.94,10.52-24.56-7-30.87-7-30.87-25.26-12.63-28.76-28.07-28.76-28.07l-1.46.05s-3.51,15.43-28.76,28.06c0,0-17.54,6.32-7,30.87,0,0,4.28,15.44-11.89,18.95"/><path class="cls-2" d="M378,375.65c11-11.42,3.2-22.4-.46-26.51s-4.57-11.89,1.37-18.2,6.86-11.51,6.86-17.46-16-17.83-14.17-26.05,4.11-26.52-12-49.83S308.93,223,308.93,223l-1.55.05s-34.6-8.69-50.67,14.63-13.78,41.6-12,49.83-14.17,20.11-14.17,26,.92,11.15,6.86,17.46,5,14.09,1.37,18.2-11.43,15.09-.46,26.51"/><path class="cls-2" d="M345.27,318.54s-15.32,22.9-36.82,23.33l-1.46.05c-21.5-.43-36.82-23.33-36.82-23.33"/><path class="cls-2" d="M195.41,197s-65.88,108.68,0,203.19"/><path class="cls-2" d="M179.4,232.4s20.66,1.5,26.75,30C206.15,262.37,187,264.66,179.4,232.4Z"/><path class="cls-2" d="M170.09,270.67s20.69.3,27.93,28.38C198,299.05,179,302.45,170.09,270.67Z"/><path class="cls-2" d="M166.77,315.81s20.35-4.53,32,21.33C198.8,337.14,180.68,344.91,166.77,315.81Z"/><path class="cls-2" d="M175.35,358.06s20-6.58,33.43,18C208.78,376.05,191.28,385.64,175.35,358.06Z"/><path class="cls-2" d="M174.4,358.25s4.31,24.19-17,38.82C157.42,397.07,150.46,375.61,174.4,358.25Z"/><path class="cls-2" d="M166,315.16s.72,24.73-22.38,34.69C143.57,349.85,139.84,327.27,166,315.16Z"/><path class="cls-2" d="M168.27,269.91s-2.11,24.61-26.13,30.71C142.14,300.62,141,277.65,168.27,269.91Z"/><path class="cls-2" d="M179.35,231.38s-6.94,23.31-31.48,22.42C147.87,253.8,151.34,231.17,179.35,231.38Z"/><path class="cls-2" d="M420.9,400.14s65.88-108.68,0-203.19"/><path class="cls-2" d="M436.91,364.69s-20.66-1.5-26.75-30C410.16,334.72,429.32,332.43,436.91,364.69Z"/><path class="cls-2" d="M446.22,326.42s-20.69-.3-27.93-28.38C418.29,298,437.33,294.64,446.22,326.42Z"/><path class="cls-2" d="M449.54,281.28s-20.34,4.53-32-21.33C417.52,260,435.64,252.18,449.54,281.28Z"/><path class="cls-2" d="M441,239s-19.94,6.59-33.43-18C407.53,221,425,211.45,441,239Z"/><path class="cls-2" d="M441.91,238.84s-4.31-24.19,17-38.82C458.89,200,465.86,221.48,441.91,238.84Z"/><path class="cls-2" d="M450.36,281.92s-.71-24.72,22.38-34.68C472.74,247.24,476.47,269.82,450.36,281.92Z"/><path class="cls-2" d="M448.05,327.18s2.1-24.61,26.12-30.71C474.17,296.47,475.29,319.44,448.05,327.18Z"/><path class="cls-2" d="M437,365.71s6.93-23.31,31.47-22.42C468.44,343.29,465,365.92,437,365.71Z"/></svg>